<svg width="12" height="8" viewBox="0 0 12 8" fill="none" xmlns="http://www.w3.org/2000/svg">
<path d="M11.8798 0.874701C11.9599 0.955558 12 1.04854 12 1.15366C12 1.25877 11.9599 1.35176 11.8798 1.43261L6.27655 7.08452C6.19639 7.16538 6.10421 7.20581 6 7.20581C5.89579 7.20581 5.80361 7.16538 5.72345 7.08452L0.12024 1.43261C0.0400802 1.35176 0 1.25877 0 1.15366C0 1.04854 0.0400802 0.955558 0.12024 0.874701L0.721443 0.268273C0.801603 0.187416 0.893788 0.146987 0.997996 0.146987C1.1022 0.146987 1.19439 0.187416 1.27455 0.268273L6 5.0348L10.7255 0.268273C10.8056 0.187416 10.8978 0.146987 11.002 0.146987C11.1062 0.146987 11.1984 0.187416 11.2786 0.268273L11.8798 0.874701Z" fill="#292929"/>
</svg>
