<svg width="20" height="20" viewBox="0 0 20 20" fill="none" xmlns="http://www.w3.org/2000/svg">
<path d="M2.50032 17.5001C2.04008 17.0398 2.04008 16.2937 2.50032 15.8334L15.8335 2.50023C16.2937 2.04 17.0399 2.04 17.5002 2.50023V2.50023C17.9604 2.96046 17.9604 3.70665 17.5002 4.16688L4.16697 17.5001C3.70673 17.9603 2.96055 17.9603 2.50032 17.5001V17.5001Z" fill="#566171"/>
<path d="M2.50066 2.50007C2.96089 2.03984 3.70708 2.03984 4.16731 2.50007L17.5005 15.8333C17.9607 16.2935 17.9607 17.0397 17.5005 17.4999V17.4999C17.0403 17.9601 16.2941 17.9601 15.8339 17.4999L2.50066 4.16672C2.04043 3.70649 2.04043 2.9603 2.50066 2.50007V2.50007Z" fill="#566171"/>
</svg>
