<svg width="20" height="20" viewBox="0 0 20 20" fill="none" xmlns="http://www.w3.org/2000/svg">
<g clip-path="url(#clip0_723_2755)">
<path d="M1.85201 15.9722H18.1483C18.7085 15.9722 19.1668 15.5139 19.1668 14.9537C19.1668 14.3935 18.7085 13.9352 18.1483 13.9352H1.85201C1.29183 13.9352 0.833496 14.3935 0.833496 14.9537C0.833496 15.5139 1.29183 15.9722 1.85201 15.9722ZM1.85201 10.8796H18.1483C18.7085 10.8796 19.1668 10.4213 19.1668 9.86111C19.1668 9.30093 18.7085 8.84259 18.1483 8.84259H1.85201C1.29183 8.84259 0.833496 9.30093 0.833496 9.86111C0.833496 10.4213 1.29183 10.8796 1.85201 10.8796ZM0.833496 4.76852C0.833496 5.3287 1.29183 5.78704 1.85201 5.78704H18.1483C18.7085 5.78704 19.1668 5.3287 19.1668 4.76852C19.1668 4.20833 18.7085 3.75 18.1483 3.75H1.85201C1.29183 3.75 0.833496 4.20833 0.833496 4.76852Z" fill="#566171"/>
</g>
<defs>
<clipPath id="clip0_723_2755">
<rect width="20" height="20" fill="white"/>
</clipPath>
</defs>
</svg>
