<svg width="11" height="11" viewBox="0 0 11 11" fill="none" xmlns="http://www.w3.org/2000/svg">
<path d="M11 5.5C11 8.53757 8.53757 11 5.5 11C2.46243 11 0 8.53757 0 5.5C0 2.46243 2.46243 0 5.5 0C8.53757 0 11 2.46243 11 5.5Z" fill="#566171"/>
<path d="M8.27527 4.50994L2.86198 4.50062C2.66422 4.50028 2.50363 4.65828 2.50328 4.85352L2.50154 5.83613C2.5012 6.03137 2.66123 6.18993 2.85899 6.19027L8.27228 6.19959C8.47004 6.19993 8.63064 6.04193 8.63098 5.84669L8.63272 4.86408C8.63306 4.66884 8.47303 4.51029 8.27527 4.50994Z" fill="white"/>
</svg>
