<svg width="11" height="11" viewBox="0 0 11 11" fill="none" xmlns="http://www.w3.org/2000/svg">
<circle cx="5.5" cy="5.5" r="5.5" fill="#566171"/>
<path d="M6.31548 4.57715C6.31548 4.61009 6.32857 4.64167 6.35186 4.66496C6.37516 4.68825 6.40675 4.70133 6.43969 4.70133H8.16795C8.33593 4.70133 8.42938 4.78472 8.44831 4.95148C8.44831 5.27477 8.46236 5.57316 8.44816 5.91615C8.43397 6.23075 8.30221 6.39676 7.98874 6.39558L6.44324 6.39203C6.40936 6.39203 6.37686 6.4053 6.3529 6.42892C6.32894 6.45254 6.31548 6.48458 6.31548 6.51799L6.31903 8.14659C6.31903 8.37012 6.18075 8.55462 5.94922 8.55462C5.61434 8.57591 5.41016 8.55462 5.04324 8.55462C4.77344 8.55462 4.65879 8.38786 4.65997 8.12885L4.66707 6.50379C4.66707 6.47368 4.65492 6.4448 4.63329 6.42351C4.61166 6.40222 4.58232 6.39025 4.55173 6.39025H2.97252C2.64721 6.39025 2.48515 6.22704 2.48633 5.90061L2.48811 5.1484C2.48929 4.85391 2.63775 4.70607 2.93348 4.70488L4.5748 4.70311C4.59833 4.70311 4.6209 4.69395 4.63753 4.67765C4.65417 4.66134 4.66352 4.63923 4.66352 4.61618L4.65465 2.93613C4.65228 2.69486 4.77176 2.57422 5.01307 2.57422L5.99964 2.57599C6.21257 2.57599 6.31903 2.68244 6.31903 2.89533L6.31548 4.57715Z" fill="white"/>
</svg>
