<svg width="11" height="11" viewBox="0 0 11 11" fill="none" xmlns="http://www.w3.org/2000/svg">
<circle cx="5.5" cy="5.5" r="5.5" fill="#FFBA34"/>
<path d="M4.84914 6.18333C4.9188 6.18171 4.9845 6.15405 5.03264 6.10607L7.72228 3.42609C7.96855 3.18143 8.2124 3.18384 8.45384 3.43333L8.9995 3.99588C9.22967 4.2325 9.22886 4.4683 8.99708 4.7033L5.18716 8.52771C5.10069 8.61411 4.98345 8.66264 4.86122 8.66264C4.73898 8.66264 4.62174 8.61411 4.53527 8.52771L2.0074 5.99984C1.76918 5.76161 1.76837 5.52178 2.00498 5.28034L2.59409 4.68157C2.80012 4.47232 3.00696 4.47232 3.2146 4.68157C3.70552 5.17572 4.18518 5.65055 4.65358 6.10607C4.7083 6.15919 4.77349 6.18494 4.84914 6.18333Z" fill="white"/>
</svg>
