<svg width="11" height="11" viewBox="0 0 11 11" fill="none" xmlns="http://www.w3.org/2000/svg">
<path d="M11 5.5C11 8.53757 8.53757 11 5.5 11C2.46243 11 0 8.53757 0 5.5C0 2.46243 2.46243 0 5.5 0C8.53757 0 11 2.46243 11 5.5Z" fill="#FFBA34"/>
<path d="M6.1539 5.30283C5.52779 4.68158 4.89196 4.0438 4.2464 3.38949C3.92946 3.06769 3.91828 2.74394 4.21286 2.41824C4.45348 2.15283 4.8764 1.80866 5.20161 2.12949C6.19522 3.10852 7.15723 4.07054 8.08765 5.01554C8.44786 5.38304 8.14744 5.69512 7.8864 5.96054C7.16598 6.69651 6.43536 7.42859 5.69453 8.15679C5.21036 8.6322 4.8589 9.04054 4.27703 8.42804C3.928 8.06151 3.91001 7.71637 4.22307 7.39262C4.89293 6.7004 5.53605 6.06019 6.15244 5.47199C6.21078 5.4156 6.21126 5.35922 6.1539 5.30283Z" fill="white"/>
</svg>
