<svg width="8" height="6" viewBox="0 0 8 6" fill="none" xmlns="http://www.w3.org/2000/svg">
<path d="M3.02102 2.93894C3.09068 2.93733 3.15638 2.90967 3.20451 2.86168L5.89415 0.181701C6.14042 -0.0629577 6.38428 -0.0605436 6.62572 0.188944L7.17137 0.7515C7.40154 0.988111 7.40074 1.22392 7.16896 1.45892L3.35903 5.28332C3.27256 5.36972 3.15533 5.41825 3.03309 5.41825C2.91085 5.41825 2.79362 5.36972 2.70715 5.28332L0.179271 2.75545C-0.0589497 2.51723 -0.0597541 2.2774 0.176857 2.03596L0.76597 1.43719C0.971999 1.22794 1.17883 1.22794 1.38647 1.43719C1.8774 1.93133 2.35706 2.40617 2.82545 2.86168C2.88018 2.9148 2.94537 2.94055 3.02102 2.93894Z" fill="#FFBA34"/>
</svg>
