<svg width="5" height="7" viewBox="0 0 5 7" fill="none" xmlns="http://www.w3.org/2000/svg">
<path d="M2.1539 3.30283C1.52779 2.68158 0.891956 2.0438 0.246401 1.38949C-0.070544 1.06769 -0.0817247 0.743938 0.212859 0.418244C0.453484 0.152827 0.8764 -0.19134 1.20161 0.129494C2.19522 1.10852 3.15723 2.07054 4.08765 3.01554C4.44786 3.38304 4.14744 3.69512 3.8864 3.96054C3.16598 4.69651 2.43536 5.42859 1.69453 6.15679C1.21036 6.6322 0.8589 7.04054 0.277025 6.42804C-0.0720025 6.06151 -0.0899884 5.71637 0.223067 5.39262C0.892928 4.7004 1.53605 4.06019 2.15244 3.47199C2.21078 3.4156 2.21126 3.35922 2.1539 3.30283Z" fill="#FFBA34"/>
</svg>
