<svg width="196" height="136" viewBox="0 0 196 136" fill="none" xmlns="http://www.w3.org/2000/svg">
<mask id="mask0_4_166" style="mask-type:alpha" maskUnits="userSpaceOnUse" x="85" y="0" width="110" height="111">
<circle cx="54.8898" cy="54.8898" r="54.8898" transform="matrix(1 0 0 -1 85.0004 110.667)" fill="#404040"/>
</mask>
<g mask="url(#mask0_4_166)">
<circle cx="4.89463" cy="4.89463" r="4.89463" transform="matrix(1 0 0 -1 126.954 54.7279)" fill="#04C4AF"/>
<circle cx="4.89463" cy="4.89463" r="4.89463" transform="matrix(1 0 0 -1 140.939 54.7279)" fill="#04C4AF"/>
<circle cx="4.89463" cy="4.89463" r="4.89463" transform="matrix(1 0 0 -1 154.924 54.7279)" fill="#04C4AF"/>
<circle cx="4.89463" cy="4.89463" r="4.89463" transform="matrix(1 0 0 -1 168.908 54.7279)" fill="#04C4AF"/>
<circle cx="4.89463" cy="4.89463" r="4.89463" transform="matrix(1 0 0 -1 85.0004 54.7279)" fill="#04C4AF"/>
<circle cx="4.89463" cy="4.89463" r="4.89463" transform="matrix(1 0 0 -1 98.985 54.7279)" fill="#04C4AF"/>
<circle cx="4.89463" cy="4.89463" r="4.89463" transform="matrix(1 0 0 -1 112.97 54.7279)" fill="#04C4AF"/>
<circle cx="4.89463" cy="4.89463" r="4.89463" transform="matrix(1 0 0 -1 85.0004 40.7432)" fill="#04C4AF"/>
<circle cx="4.89463" cy="4.89463" r="4.89463" transform="matrix(1 0 0 -1 98.985 40.7432)" fill="#04C4AF"/>
<circle cx="4.89463" cy="4.89463" r="4.89463" transform="matrix(1 0 0 -1 112.97 40.7432)" fill="#04C4AF"/>
<circle cx="4.89463" cy="4.89463" r="4.89463" transform="matrix(1 0 0 -1 126.954 40.7432)" fill="#04C4AF"/>
<circle cx="4.89463" cy="4.89463" r="4.89463" transform="matrix(1 0 0 -1 140.939 40.7432)" fill="#04C4AF"/>
<circle cx="4.89463" cy="4.89463" r="4.89463" transform="matrix(1 0 0 -1 154.924 40.7432)" fill="#04C4AF"/>
<circle cx="4.89463" cy="4.89463" r="4.89463" transform="matrix(1 0 0 -1 126.954 26.7585)" fill="#04C4AF"/>
<circle cx="4.89463" cy="4.89463" r="4.89463" transform="matrix(1 0 0 -1 140.939 26.7585)" fill="#04C4AF"/>
<circle cx="4.89463" cy="4.89463" r="4.89463" transform="matrix(1 0 0 -1 154.924 26.7585)" fill="#04C4AF"/>
<circle cx="4.89463" cy="4.89463" r="4.89463" transform="matrix(1 0 0 -1 168.908 26.7585)" fill="#04C4AF"/>
<circle cx="4.89463" cy="4.89463" r="4.89463" transform="matrix(1 0 0 -1 168.908 40.7432)" fill="#04C4AF"/>
<circle cx="4.89463" cy="4.89463" r="4.89463" transform="matrix(1 0 0 -1 168.908 12.7739)" fill="#04C4AF"/>
<circle cx="4.89463" cy="4.89463" r="4.89463" transform="matrix(1 0 0 -1 85.0004 26.7585)" fill="#04C4AF"/>
<circle cx="4.89463" cy="4.89463" r="4.89463" transform="matrix(1 0 0 -1 98.985 26.7585)" fill="#04C4AF"/>
<circle cx="4.89463" cy="4.89463" r="4.89463" transform="matrix(1 0 0 -1 112.97 26.7585)" fill="#04C4AF"/>
<circle cx="4.89463" cy="4.89463" r="4.89463" transform="matrix(1 0 0 -1 85.0004 12.7739)" fill="#04C4AF"/>
<circle cx="4.89463" cy="4.89463" r="4.89463" transform="matrix(1 0 0 -1 98.985 12.7739)" fill="#04C4AF"/>
<circle cx="4.89463" cy="4.89463" r="4.89463" transform="matrix(1 0 0 -1 112.97 12.7739)" fill="#04C4AF"/>
<circle cx="4.89463" cy="4.89463" r="4.89463" transform="matrix(1 0 0 -1 126.954 12.7739)" fill="#04C4AF"/>
<circle cx="4.89463" cy="4.89463" r="4.89463" transform="matrix(1 0 0 -1 140.939 12.7739)" fill="#04C4AF"/>
<circle cx="4.89463" cy="4.89463" r="4.89463" transform="matrix(1 0 0 -1 154.924 12.7739)" fill="#04C4AF"/>
<circle cx="4.89463" cy="4.89463" r="4.89463" transform="matrix(1 0 0 -1 127 110.667)" fill="#04C4AF"/>
<circle cx="4.89463" cy="4.89463" r="4.89463" transform="matrix(1 0 0 -1 141 110.667)" fill="#04C4AF"/>
<circle cx="4.89463" cy="4.89463" r="4.89463" transform="matrix(1 0 0 -1 168.908 110.667)" fill="#04C4AF"/>
<circle cx="4.89463" cy="4.89463" r="4.89463" transform="matrix(1 0 0 -1 182.893 110.667)" fill="#04C4AF"/>
<circle cx="4.89463" cy="4.89463" r="4.89463" transform="matrix(1 0 0 -1 182.893 96.6819)" fill="#04C4AF"/>
<circle cx="4.89463" cy="4.89463" r="4.89463" transform="matrix(1 0 0 -1 85.0004 110.667)" fill="#04C4AF"/>
<circle cx="4.89463" cy="4.89463" r="4.89463" transform="matrix(1 0 0 -1 101.782 110.667)" fill="#04C4AF"/>
<circle cx="4.89463" cy="4.89463" r="4.89463" transform="matrix(1 0 0 -1 112.782 110.667)" fill="#04C4AF"/>
<circle cx="4.89463" cy="4.89463" r="4.89463" transform="matrix(1 0 0 -1 85.0004 96.6819)" fill="#04C4AF"/>
<circle cx="4.89463" cy="4.89463" r="4.89463" transform="matrix(1 0 0 -1 99.0004 96.6819)" fill="#04C4AF"/>
<circle cx="4.89463" cy="4.89463" r="4.89463" transform="matrix(1 0 0 -1 112.782 96.6819)" fill="#04C4AF"/>
<circle cx="4.89463" cy="4.89463" r="4.89463" transform="matrix(1 0 0 -1 127 96.6819)" fill="#04C4AF"/>
<circle cx="4.89463" cy="4.89463" r="4.89463" transform="matrix(1 0 0 -1 141 96.6819)" fill="#04C4AF"/>
<circle cx="4.89463" cy="4.89463" r="4.89463" transform="matrix(1 0 0 -1 155 96.6819)" fill="#04C4AF"/>
<circle cx="4.89463" cy="4.89463" r="4.89463" transform="matrix(1 0 0 -1 155 110.977)" fill="#04C4AF"/>
<circle cx="4.89463" cy="4.89463" r="4.89463" transform="matrix(1 0 0 -1 127 82.6971)" fill="#04C4AF"/>
<circle cx="4.89463" cy="4.89463" r="4.89463" transform="matrix(1 0 0 -1 141 82.6971)" fill="#04C4AF"/>
<circle cx="4.89463" cy="4.89463" r="4.89463" transform="matrix(1 0 0 -1 155 82.6971)" fill="#04C4AF"/>
<circle cx="4.89463" cy="4.89463" r="4.89463" transform="matrix(1 0 0 -1 182.893 82.6971)" fill="#04C4AF"/>
<circle cx="4.89463" cy="4.89463" r="4.89463" transform="matrix(1 0 0 -1 182.893 68.7125)" fill="#04C4AF"/>
<circle cx="4.89463" cy="4.89463" r="4.89463" transform="matrix(1 0 0 -1 85.0004 82.6971)" fill="#04C4AF"/>
<circle cx="4.89463" cy="4.89463" r="4.89463" transform="matrix(1 0 0 -1 99.0004 82.6971)" fill="#04C4AF"/>
<circle cx="4.89463" cy="4.89463" r="4.89463" transform="matrix(1 0 0 -1 112.782 82.6971)" fill="#04C4AF"/>
<circle cx="4.89463" cy="4.89463" r="4.89463" transform="matrix(1 0 0 -1 85.0004 68.7125)" fill="#04C4AF"/>
<circle cx="4.89463" cy="4.89463" r="4.89463" transform="matrix(1 0 0 -1 99.0004 68.7125)" fill="#04C4AF"/>
<circle cx="4.89463" cy="4.89463" r="4.89463" transform="matrix(1 0 0 -1 112.782 68.7125)" fill="#04C4AF"/>
<circle cx="4.89463" cy="4.89463" r="4.89463" transform="matrix(1 0 0 -1 127 68.7125)" fill="#04C4AF"/>
<circle cx="4.89463" cy="4.89463" r="4.89463" transform="matrix(1 0 0 -1 141 68.7125)" fill="#04C4AF"/>
<circle cx="4.89463" cy="4.89463" r="4.89463" transform="matrix(1 0 0 -1 155 68.7125)" fill="#04C4AF"/>
<circle cx="4.89463" cy="4.89463" r="4.89463" transform="matrix(1 0 0 -1 169 96.6819)" fill="#04C4AF"/>
<circle cx="4.89463" cy="4.89463" r="4.89463" transform="matrix(1 0 0 -1 169 110.977)" fill="#04C4AF"/>
<circle cx="4.89463" cy="4.89463" r="4.89463" transform="matrix(1 0 0 -1 169 82.6971)" fill="#04C4AF"/>
<circle cx="4.89463" cy="4.89463" r="4.89463" transform="matrix(1 0 0 -1 169 68.7125)" fill="#04C4AF"/>
<circle cx="4.89463" cy="4.89463" r="4.89463" transform="matrix(1 0 0 -1 182.893 54.7279)" fill="#04C4AF"/>
<circle cx="4.89463" cy="4.89463" r="4.89463" transform="matrix(1 0 0 -1 182.893 40.7432)" fill="#04C4AF"/>
<circle cx="4.89463" cy="4.89463" r="4.89463" transform="matrix(1 0 0 -1 182.893 26.7585)" fill="#04C4AF"/>
<circle cx="4.89463" cy="4.89463" r="4.89463" transform="matrix(1 0 0 -1 182.893 12.7739)" fill="#04C4AF"/>
</g>
<path fill-rule="evenodd" clip-rule="evenodd" d="M71.5004 79.1877C92.7634 79.1877 110 96.4248 110 117.688C110 123.914 108.522 129.796 105.898 135H37.103C34.4785 129.796 33.0004 123.914 33.0004 117.688C33.0004 96.4248 50.2375 79.1877 71.5004 79.1877Z" fill="#4EA1FF"/>
<mask id="mask1_4_166" style="mask-type:alpha" maskUnits="userSpaceOnUse" x="9" y="77" width="49" height="50">
<circle cx="24.3412" cy="24.3412" r="24.3412" transform="matrix(0.851438 -0.524455 -0.524455 -0.851438 25.5317 135.169)" fill="#4EA1FF"/>
</mask>
<g mask="url(#mask1_4_166)">
<rect width="2.43412" height="73.0235" transform="matrix(1 8.84947e-10 8.84947e-10 -1 8.15613 130.513)" fill="white"/>
<rect width="2.43412" height="73.0235" transform="matrix(1 8.84947e-10 8.84947e-10 -1 12.1301 130.513)" fill="white"/>
<rect width="2.43412" height="73.0235" transform="matrix(1 8.84947e-10 8.84947e-10 -1 16.1043 130.55)" fill="white"/>
<rect width="2.43412" height="73.0235" transform="matrix(1 8.84947e-10 8.84947e-10 -1 20.0784 130.586)" fill="white"/>
<rect width="2.43412" height="73.0235" transform="matrix(1 8.84947e-10 8.84947e-10 -1 24.0525 130.623)" fill="white"/>
<rect width="2.43412" height="73.0235" transform="matrix(1 8.84947e-10 8.84947e-10 -1 28.0266 130.66)" fill="white"/>
<rect width="2.43412" height="73.0235" transform="matrix(1 8.84947e-10 8.84947e-10 -1 32.0007 130.696)" fill="white"/>
<rect width="2.43412" height="73.0235" transform="matrix(1 8.84947e-10 8.84947e-10 -1 35.9747 130.733)" fill="white"/>
<rect width="2.43412" height="73.0235" transform="matrix(1 8.84947e-10 8.84947e-10 -1 39.9488 130.769)" fill="white"/>
<rect width="2.43412" height="73.0235" transform="matrix(1 8.84947e-10 8.84947e-10 -1 43.9229 130.806)" fill="white"/>
<rect width="2.43412" height="73.0235" transform="matrix(1 8.84947e-10 8.84947e-10 -1 47.8969 130.843)" fill="white"/>
<rect width="2.43412" height="73.0235" transform="matrix(1 8.84947e-10 8.84947e-10 -1 51.871 130.879)" fill="white"/>
<rect width="2.43412" height="73.0235" transform="matrix(1 8.84947e-10 8.84947e-10 -1 55.845 130.916)" fill="white"/>
</g>
</svg>
