<svg width="24" height="24" viewBox="0 0 24 24" fill="none" xmlns="http://www.w3.org/2000/svg">
<g id="Icon">
<path id="Union" fill-rule="evenodd" clip-rule="evenodd" d="M12 1.34266C11.402 1.34266 10.9173 1.7935 10.9173 2.34965C10.9173 2.9058 11.402 3.35664 12 3.35664C12.598 3.35664 13.0827 2.9058 13.0827 2.34965C13.0827 1.7935 12.598 1.34266 12 1.34266ZM9.53886 1.81708C9.79827 0.775947 10.8017 0 12 0C13.1983 0 14.2017 0.775947 14.4611 1.81708C15.7984 2.18071 17.5641 2.93027 19.0717 4.15101C20.6644 5.44067 21.9926 7.27941 22.1743 9.74188C23.2287 10.0244 24 10.9284 24 12C24 13.0649 23.2383 13.9643 22.194 14.2528C22.1424 16.9299 20.7548 18.9058 19.0717 20.2686C17.498 21.5428 15.6432 22.3036 14.2879 22.6481C13.8845 23.4469 13.0117 24 12 24C10.9883 24 10.1155 23.4469 9.7121 22.6481C8.35675 22.3036 6.50198 21.5428 4.92831 20.2686C3.24525 18.9058 1.85765 16.9299 1.806 14.2528C0.761691 13.9643 0 13.0649 0 12C0 10.9284 0.771281 10.0244 1.8257 9.74188C2.00742 7.27941 3.33556 5.44067 4.92831 4.15101C6.43593 2.93027 8.20155 2.18071 9.53886 1.81708ZM14.4777 21.1892C15.5836 20.837 16.9496 20.2067 18.1238 19.2559C19.5704 18.0846 20.6997 16.4528 20.7501 14.2519C19.7075 13.9625 18.9474 13.0638 18.9474 12C18.9474 10.9439 19.6965 10.0505 20.7276 9.7545C20.5547 7.76098 19.4784 6.26048 18.1238 5.16367C16.9071 4.17851 15.4845 3.53739 14.3586 3.19318C13.9942 4.07413 13.0756 4.6993 12 4.6993C10.9244 4.6993 10.0058 4.07413 9.64137 3.19318C8.51551 3.53739 7.0929 4.17851 5.87621 5.16367C4.52163 6.26048 3.44529 7.76098 3.27241 9.7545C4.30345 10.0505 5.05263 10.9439 5.05263 12C5.05263 13.0638 4.29252 13.9625 3.24988 14.2519C3.3003 16.4528 4.42959 18.0846 5.87621 19.2559C7.0504 20.2067 8.41637 20.837 9.52231 21.1892C9.75271 20.1124 10.7744 19.3007 12 19.3007C13.2256 19.3007 14.2473 20.1124 14.4777 21.1892ZM8.9469 9.31568L12 7.67624L15.0531 9.3157L12 10.6408L8.9469 9.31568ZM7.35025 8.62268L7.31914 8.60918L7.29839 8.65053L6.53037 9.06294V14.9371L12 17.8741L17.4696 14.9371V9.06294L16.7017 8.65059L16.681 8.60918L16.6498 8.6227L12 6.12587L7.35025 8.62268ZM16.026 10.3751L12.7219 11.8092V15.9361L16.026 14.1619V10.3751ZM11.2782 15.9362L7.97398 14.1619V10.3751L11.2782 11.8092V15.9362ZM10.9173 21.6503C10.9173 21.0942 11.402 20.6434 12 20.6434C12.598 20.6434 13.0827 21.0942 13.0827 21.6503C13.0827 22.2065 12.598 22.6573 12 22.6573C11.402 22.6573 10.9173 22.2065 10.9173 21.6503ZM21.4737 10.993C20.8757 10.993 20.391 11.4439 20.391 12C20.391 12.5561 20.8757 13.007 21.4737 13.007C22.0716 13.007 22.5564 12.5561 22.5564 12C22.5564 11.4439 22.0716 10.993 21.4737 10.993ZM1.44361 12C1.44361 11.4439 1.92835 10.993 2.52632 10.993C3.12428 10.993 3.60902 11.4439 3.60902 12C3.60902 12.5561 3.12428 13.007 2.52632 13.007C1.92835 13.007 1.44361 12.5561 1.44361 12Z" fill="#0292DE"/>
</g>
</svg>
