<svg width="24" height="24" viewBox="0 0 24 24" fill="none" xmlns="http://www.w3.org/2000/svg">
<g id="Group">
<path id="Vector (Stroke)" fill-rule="evenodd" clip-rule="evenodd" d="M12.0001 4.28571C12.4735 4.28571 12.8572 4.66946 12.8572 5.14285V6.92726C13.3766 7.01497 13.8655 7.18639 14.2794 7.44957C14.9334 7.86552 15.4287 8.54099 15.4287 9.42856C15.4287 9.90195 15.0449 10.2857 14.5715 10.2857C14.0981 10.2857 13.7144 9.90195 13.7144 9.42856C13.7144 9.25328 13.6354 9.07161 13.3594 8.89612C13.0658 8.7094 12.5941 8.57142 12.0001 8.57142C11.6352 8.57142 11.3359 8.57204 11.0724 8.59498C10.808 8.61799 10.643 8.65934 10.5396 8.70702C10.456 8.74552 10.4169 8.78481 10.3849 8.84411C10.3437 8.92054 10.2858 9.08873 10.2858 9.42856C10.2858 9.73274 10.4186 9.99492 10.781 10.2969C11.1715 10.6223 11.7163 10.8998 12.3834 11.2333C12.3989 11.2411 12.4144 11.2488 12.43 11.2566C13.0389 11.5609 13.7573 11.92 14.3167 12.3862C14.9186 12.8878 15.4287 13.5899 15.4287 14.5714C15.4287 15.0887 15.343 15.5634 15.1244 15.9691C14.8965 16.392 14.5596 16.6741 14.1781 16.8499C13.8166 17.0165 13.4276 17.0823 13.0765 17.1128C13.0043 17.1191 12.9311 17.1241 12.8572 17.128V18.8571C12.8572 19.3305 12.4735 19.7143 12.0001 19.7143C11.5267 19.7143 11.143 19.3305 11.143 18.8571V17.0903C10.6499 17.0253 10.1685 16.8928 9.75298 16.6534C9.03085 16.2375 8.57153 15.5305 8.57153 14.5714C8.57153 14.098 8.95529 13.7143 9.42868 13.7143C9.90206 13.7143 10.2858 14.098 10.2858 14.5714C10.2858 14.8981 10.4008 15.0482 10.6087 15.168C10.8828 15.3259 11.3483 15.4286 12.0001 15.4286C12.365 15.4286 12.6643 15.4279 12.9278 15.405C13.1922 15.382 13.3572 15.3406 13.4607 15.293C13.5442 15.2545 13.5833 15.2152 13.6153 15.1559C13.6565 15.0794 13.7144 14.9113 13.7144 14.5714C13.7144 14.2672 13.5816 14.0051 13.2192 13.7031C12.8287 13.3776 12.2839 13.1002 11.6168 12.7666C11.6013 12.7589 11.5858 12.7512 11.5702 12.7434C10.9613 12.439 10.2429 12.08 9.68352 11.6138C9.08157 11.1122 8.57153 10.4101 8.57153 9.42856C8.57153 8.91126 8.65718 8.43658 8.87582 8.03087C9.10368 7.60803 9.44062 7.32589 9.82208 7.1501C10.1836 6.9835 10.5726 6.91771 10.9237 6.88715C10.9959 6.88087 11.0691 6.8759 11.143 6.87197V5.14285C11.143 4.66946 11.5267 4.28571 12.0001 4.28571Z" fill="#0292DE"/>
<path id="Vector (Stroke)_2" fill-rule="evenodd" clip-rule="evenodd" d="M12 1.71429C6.31936 1.71429 1.71429 6.31936 1.71429 12C1.71429 17.6806 6.31936 22.2857 12 22.2857C17.6806 22.2857 22.2857 17.6806 22.2857 12C22.2857 6.31936 17.6806 1.71429 12 1.71429ZM0 12C0 5.37258 5.37258 0 12 0C18.6274 0 24 5.37258 24 12C24 18.6274 18.6274 24 12 24C5.37258 24 0 18.6274 0 12Z" fill="#0292DE"/>
</g>
</svg>
