<svg width="22" height="20" viewBox="0 0 22 20" fill="none" xmlns="http://www.w3.org/2000/svg">
<g id="Group">
<path id="Vector" d="M16.25 5C16.25 4.80109 16.171 4.61032 16.0303 4.46967C15.8897 4.32902 15.6989 4.25 15.5 4.25C15.3011 4.25 15.1103 4.32902 14.9697 4.46967C14.829 4.61032 14.75 4.80109 14.75 5V6.25H13.5C13.3011 6.25 13.1103 6.32902 12.9697 6.46967C12.829 6.61032 12.75 6.80109 12.75 7C12.75 7.19891 12.829 7.38968 12.9697 7.53033C13.1103 7.67098 13.3011 7.75 13.5 7.75H14.75V9C14.75 9.19891 14.829 9.38968 14.9697 9.53033C15.1103 9.67098 15.3011 9.75 15.5 9.75C15.6989 9.75 15.8897 9.67098 16.0303 9.53033C16.171 9.38968 16.25 9.19891 16.25 9V7.75H17.5C17.6989 7.75 17.8897 7.67098 18.0303 7.53033C18.171 7.38968 18.25 7.19891 18.25 7C18.25 6.80109 18.171 6.61032 18.0303 6.46967C17.8897 6.32902 17.6989 6.25 17.5 6.25H16.25V5Z" fill="#0292DE"/>
<path id="Vector_2" fill-rule="evenodd" clip-rule="evenodd" d="M21.75 7.318C21.75 3.992 20.268 1.51 17.96 0.606995C15.825 -0.230005 13.262 0.395995 11 2.513C8.738 0.395995 6.175 -0.230005 4.04 0.606995C1.732 1.51 0.25 3.992 0.25 7.317C0.25 9.436 1.38 11.52 2.787 13.314C4.209 15.127 5.997 16.75 7.489 17.961L7.623 18.071C8.823 19.046 9.691 19.751 11 19.751C12.31 19.751 13.176 19.046 14.377 18.071L14.511 17.961C16.003 16.751 17.791 15.127 19.213 13.314C20.62 11.52 21.75 9.436 21.75 7.318ZM11.548 4.087C13.66 1.828 15.849 1.391 17.414 2.003C18.982 2.617 20.25 4.413 20.25 7.318C20.25 8.929 19.37 10.682 18.032 12.388C16.708 14.078 15.016 15.62 13.566 16.797C12.173 17.927 11.723 18.25 11 18.25C10.277 18.25 9.827 17.927 8.434 16.796C6.984 15.62 5.292 14.077 3.968 12.389C2.629 10.682 1.75 8.929 1.75 7.318C1.75 4.413 3.018 2.618 4.586 2.003C6.151 1.391 8.34 1.828 10.452 4.087C10.5222 4.16209 10.607 4.22196 10.7013 4.26289C10.7956 4.30382 10.8972 4.32494 11 4.32494C11.1028 4.32494 11.2044 4.30382 11.2987 4.26289C11.393 4.22196 11.4778 4.16209 11.548 4.087Z" fill="#0292DE"/>
</g>
</svg>
