<svg width="24" height="24" viewBox="0 0 24 24" fill="none" xmlns="http://www.w3.org/2000/svg">
<g id="Icon">
<path id="Vector" d="M15.6665 3.75006C15.6665 3.50694 15.7631 3.27378 15.935 3.10186C16.1069 2.92995 16.3401 2.83337 16.5833 2.83337C16.8264 2.83337 17.0596 2.92995 17.2315 3.10186C17.4035 3.27378 17.5 3.50694 17.5 3.75006C17.5 3.99318 17.4035 4.22634 17.2315 4.39825C17.0596 4.57017 16.8264 4.66675 16.5833 4.66675C16.3401 4.66675 16.1069 4.57017 15.935 4.39825C15.7631 4.22634 15.6665 3.99318 15.6665 3.75006ZM16.5833 1C16.0535 0.999778 15.5349 1.15255 15.0899 1.43996C14.6449 1.72736 14.2924 2.13717 14.0747 2.62011C13.857 3.10305 13.7835 3.63858 13.8629 4.16232C13.9423 4.68606 14.1713 5.17571 14.5224 5.57243L13.3801 7.62764C12.7287 7.42219 12.0396 7.36496 11.3632 7.46012C10.6869 7.55528 10.0403 7.80044 9.47094 8.17765L8.06461 6.76779C8.34425 6.1824 8.40792 5.51701 8.24437 4.88922C8.08081 4.26144 7.70056 3.71167 7.17083 3.33711C6.6411 2.96254 5.99599 2.7873 5.34952 2.84234C4.70306 2.89738 4.09687 3.17917 3.6381 3.63789C3.17933 4.09662 2.89751 4.70275 2.84247 5.34915C2.78742 5.99555 2.96269 6.6406 3.33729 7.17029C3.71189 7.69997 4.2617 8.08018 4.88955 8.24372C5.5174 8.40726 6.18285 8.3436 6.76829 8.06398L8.17463 9.47201C7.79635 10.0409 7.55069 10.6875 7.4558 11.364C7.36091 12.0406 7.41921 12.7298 7.62639 13.3808L5.57099 14.523C5.08471 14.0935 4.46226 13.8498 3.81364 13.8348C3.16503 13.8199 2.53202 14.0347 2.02648 14.4413C1.52095 14.8479 1.17545 15.4202 1.05104 16.0568C0.926635 16.6935 1.03133 17.3537 1.34663 17.9207C1.66193 18.4876 2.16753 18.9249 2.77407 19.1552C3.3806 19.3854 4.04903 19.3939 4.6612 19.179C5.27337 18.9642 5.78987 18.5399 6.11942 17.9811C6.44897 17.4223 6.57034 16.765 6.46209 16.1253L8.51933 14.9831C9.0099 15.5567 9.6348 16.0001 10.3383 16.2736C11.0418 16.5471 11.8021 16.6423 12.5513 16.5507L13.061 18.0797C12.549 18.4781 12.1944 19.0447 12.0598 19.6793C11.9252 20.3139 12.0192 20.9756 12.3253 21.5476C12.6315 22.1195 13.1299 22.5648 13.7327 22.8049C14.3354 23.0449 15.0036 23.0641 15.6191 22.8591C16.2347 22.6542 16.7579 22.2383 17.0965 21.6849C17.435 21.1315 17.567 20.4762 17.4691 19.835C17.3712 19.1937 17.0497 18.6077 16.5615 18.1804C16.0733 17.7532 15.4497 17.5123 14.8011 17.5004L14.2895 15.9713C15.265 15.4085 16.013 14.4973 16.3632 13.4064L17.5716 13.5421C17.7192 14.1738 18.0855 14.7329 18.6056 15.1207C19.1257 15.5085 19.7662 15.7 20.4138 15.6613C21.0614 15.6225 21.6745 15.3561 22.1447 14.9092C22.6149 14.4622 22.9119 13.8634 22.9833 13.2186C23.0547 12.5738 22.8958 11.9245 22.5347 11.3856C22.1736 10.8466 21.6336 10.4526 21.0101 10.2733C20.3866 10.0939 19.7198 10.1407 19.1275 10.4054C18.5352 10.6701 18.0555 11.1356 17.7732 11.7197L16.5631 11.5859C16.4564 10.397 15.8892 9.29696 14.9826 8.52049L16.1249 6.46162C16.5001 6.52507 16.8845 6.50996 17.2536 6.41724C17.6227 6.32453 17.9686 6.15622 18.2693 5.92297C18.57 5.68972 18.819 5.3966 19.0006 5.06217C19.1822 4.72773 19.2924 4.35925 19.3242 3.98004C19.356 3.60083 19.3088 3.21914 19.1855 2.85912C19.0622 2.4991 18.8655 2.16858 18.6079 1.88848C18.3502 1.60838 18.0373 1.38479 17.6888 1.23185C17.3403 1.07892 16.9639 0.99997 16.5833 1ZM5.58199 4.66675C5.82513 4.66675 6.05832 4.76332 6.23025 4.93524C6.40217 5.10715 6.49876 5.34031 6.49876 5.58343C6.49876 5.82655 6.40217 6.05971 6.23025 6.23163C6.05832 6.40354 5.82513 6.50012 5.58199 6.50012C5.33885 6.50012 5.10566 6.40354 4.93373 6.23163C4.7618 6.05971 4.66522 5.82655 4.66522 5.58343C4.66522 5.34031 4.7618 5.10715 4.93373 4.93524C5.10566 4.76332 5.33885 4.66675 5.58199 4.66675ZM3.74844 15.667C3.99159 15.667 4.22477 15.7636 4.3967 15.9355C4.56863 16.1074 4.66522 16.3405 4.66522 16.5837C4.66522 16.8268 4.56863 17.0599 4.3967 17.2319C4.22477 17.4038 3.99159 17.5004 3.74844 17.5004C3.5053 17.5004 3.27211 17.4038 3.10019 17.2319C2.92826 17.0599 2.83167 16.8268 2.83167 16.5837C2.83167 16.3405 2.92826 16.1074 3.10019 15.9355C3.27211 15.7636 3.5053 15.667 3.74844 15.667ZM13.833 20.2504C13.833 20.0073 13.9295 19.7741 14.1015 19.6022C14.2734 19.4303 14.5066 19.3337 14.7497 19.3337C14.9929 19.3337 15.2261 19.4303 15.398 19.6022C15.5699 19.7741 15.6665 20.0073 15.6665 20.2504C15.6665 20.4935 15.5699 20.7267 15.398 20.8986C15.2261 21.0705 14.9929 21.1671 14.7497 21.1671C14.5066 21.1671 14.2734 21.0705 14.1015 20.8986C13.9295 20.7267 13.833 20.4935 13.833 20.2504ZM20.2504 12.0002C20.4935 12.0002 20.7267 12.0968 20.8986 12.2687C21.0706 12.4406 21.1671 12.6738 21.1671 12.9169C21.1671 13.16 21.0706 13.3932 20.8986 13.5651C20.7267 13.737 20.4935 13.8336 20.2504 13.8336C20.0072 13.8336 19.774 13.737 19.6021 13.5651C19.4302 13.3932 19.3336 13.16 19.3336 12.9169C19.3336 12.6738 19.4302 12.4406 19.6021 12.2687C19.774 12.0968 20.0072 12.0002 20.2504 12.0002ZM11.9994 9.25018C12.7288 9.25018 13.4284 9.53991 13.9442 10.0556C14.46 10.5714 14.7497 11.2709 14.7497 12.0002C14.7497 12.7296 14.46 13.4291 13.9442 13.9448C13.4284 14.4606 12.7288 14.7503 11.9994 14.7503C11.27 14.7503 10.5704 14.4606 10.0546 13.9448C9.53885 13.4291 9.24908 12.7296 9.24908 12.0002C9.24908 11.2709 9.53885 10.5714 10.0546 10.0556C10.5704 9.53991 11.27 9.25018 11.9994 9.25018Z" fill="#0292DE"/>
</g>
</svg>
