<svg width="20" height="20" viewBox="0 0 20 20" fill="none" xmlns="http://www.w3.org/2000/svg">
<g id="Group">
<path id="Vector (Stroke)" fill-rule="evenodd" clip-rule="evenodd" d="M0.732233 0.732233C1.20107 0.263392 1.83696 0 2.5 0H8.5C9.05229 0 9.5 0.447715 9.5 1C9.5 1.55228 9.05229 2 8.5 2H2.5C2.36739 2 2.24021 2.05268 2.14645 2.14645C2.05268 2.24021 2 2.36739 2 2.5V13.5C2 13.6326 2.05268 13.7598 2.14645 13.8536C2.24022 13.9473 2.36739 14 2.5 14H17.5C17.6326 14 17.7598 13.9473 17.8536 13.8536C17.9473 13.7598 18 13.6326 18 13.5V8.5C18 7.94772 18.4477 7.5 19 7.5C19.5523 7.5 20 7.94772 20 8.5V13.5C20 14.163 19.7366 14.7989 19.2678 15.2678C18.7989 15.7366 18.163 16 17.5 16H11V19C11 19.5523 10.5523 20 10 20C9.44771 20 9 19.5523 9 19V16H2.5C1.83696 16 1.20107 15.7366 0.732233 15.2678C0.263393 14.7989 0 14.163 0 13.5V2.5C0 1.83696 0.263392 1.20107 0.732233 0.732233Z" fill="#0292DE"/>
<path id="Vector (Stroke)_2" fill-rule="evenodd" clip-rule="evenodd" d="M14.7071 0.292893C15.0976 0.683417 15.0976 1.31658 14.7071 1.70711L13.4142 3L14.7071 4.29289C15.0976 4.68342 15.0976 5.31658 14.7071 5.70711C14.3166 6.09763 13.6834 6.09763 13.2929 5.70711L11.2929 3.70711C10.9024 3.31658 10.9024 2.68342 11.2929 2.29289L13.2929 0.292893C13.6834 -0.0976311 14.3166 -0.0976311 14.7071 0.292893ZM16.2929 0.292893C16.6834 -0.0976311 17.3166 -0.0976311 17.7071 0.292893L19.7071 2.29289C20.0976 2.68342 20.0976 3.31658 19.7071 3.70711L17.7071 5.70711C17.3166 6.09763 16.6834 6.09763 16.2929 5.70711C15.9024 5.31658 15.9024 4.68342 16.2929 4.29289L17.5858 3L16.2929 1.70711C15.9024 1.31658 15.9024 0.683417 16.2929 0.292893ZM4 19C4 18.4477 4.44772 18 5 18H15C15.5523 18 16 18.4477 16 19C16 19.5523 15.5523 20 15 20H5C4.44772 20 4 19.5523 4 19Z" fill="#0292DE"/>
</g>
</svg>
