<svg width="20" height="22" viewBox="0 0 20 22" fill="none" xmlns="http://www.w3.org/2000/svg">
<g id="Group">
<path id="Union" fill-rule="evenodd" clip-rule="evenodd" d="M3.35269 0.221606C3.03325 -0.0836326 2.52685 -0.072121 2.22161 0.247318C0.821145 1.71293 0.0254299 3.42837 0.000598807 5.22142C-0.0242976 7.01918 0.727318 8.78888 2.22161 10.3527C2.52685 10.6721 3.03325 10.6836 3.35269 10.3784C3.67212 10.0732 3.68364 9.56676 3.3784 9.24732C2.12071 7.93112 1.58234 6.55083 1.60045 5.24358C1.61861 3.93164 2.19888 2.58707 3.3784 1.35268C3.68364 1.03325 3.67212 0.526845 3.35269 0.221606ZM16.2473 0.221606C16.5668 -0.0836326 17.0732 -0.072121 17.3784 0.247318C18.7789 1.71293 19.5746 3.42837 19.5994 5.22142C19.6243 7.01918 18.8727 8.78888 17.3784 10.3527C17.0732 10.6721 16.5668 10.6836 16.2473 10.3784C15.9279 10.0732 15.9164 9.56676 16.2216 9.24732C17.4793 7.93112 18.0177 6.55083 17.9996 5.24358C17.9814 3.93164 17.4011 2.58707 16.2216 1.35268C15.9164 1.03325 15.9279 0.526845 16.2473 0.221606ZM15.3657 1.93427C15.0533 1.62185 14.5467 1.62185 14.2343 1.93427C13.9219 2.24669 13.9219 2.75322 14.2343 3.06564C14.872 3.70332 15.1537 4.36428 15.1626 4.97405C15.1713 5.57851 14.9138 6.25476 14.2343 6.93427C13.9219 7.24669 13.9219 7.75322 14.2343 8.06564C14.5467 8.37806 15.0533 8.37806 15.3657 8.06564C16.2862 7.14515 16.7787 6.07139 16.7624 4.95086C16.7463 3.83563 16.228 2.79658 15.3657 1.93427ZM8.938 7.67432C7.70129 7.30396 6.8 6.15724 6.8 4.8C6.8 3.14315 8.14315 1.8 9.8 1.8C11.4569 1.8 12.8 3.14315 12.8 4.8C12.8 6.15367 11.9034 7.29794 10.6717 7.67139L14.7196 13.8622L18.9696 20.3622C19.2114 20.732 19.1076 21.2278 18.7378 21.4696C18.368 21.7114 17.8722 21.6076 17.6304 21.2378L13.6172 15.1H6.24704L2.48133 21.2193C2.24977 21.5956 1.75701 21.7129 1.38072 21.4813C1.00444 21.2498 0.887115 20.757 1.11868 20.3807L5.11868 13.8807L8.938 7.67432ZM12.5711 13.5H7.23165L9.82047 9.29317L12.5711 13.5ZM4.23432 1.93427C4.54674 1.62185 5.05327 1.62185 5.36569 1.93427C5.67811 2.24669 5.67811 2.75322 5.36569 3.06564C4.728 3.70332 4.44626 4.36428 4.43742 4.97405C4.42866 5.57851 4.68618 6.25476 5.36569 6.93427C5.67811 7.24669 5.67811 7.75322 5.36569 8.06564C5.05327 8.37806 4.54674 8.37806 4.23432 8.06564C3.31383 7.14515 2.82135 6.07139 2.83759 4.95086C2.85375 3.83563 3.372 2.79658 4.23432 1.93427ZM11.2 4.8C11.2 5.5732 10.5732 6.2 9.8 6.2C9.0268 6.2 8.4 5.5732 8.4 4.8C8.4 4.0268 9.0268 3.4 9.8 3.4C10.5732 3.4 11.2 4.0268 11.2 4.8Z" fill="#0292DE"/>
</g>
</svg>
