<svg width="20" height="17" viewBox="0 0 20 17" fill="none" xmlns="http://www.w3.org/2000/svg">
<path d="M20 0.903925V1.11549C18.9854 5.95792 17.9609 10.8014 16.9266 15.6459C16.7141 16.6426 15.9766 16.9764 15.1266 16.3464C13.5755 15.1961 12.1031 14.1138 10.7094 13.0993C10.694 13.0884 10.6754 13.0832 10.6568 13.0846C10.6382 13.0861 10.6209 13.094 10.6078 13.1072C9.8276 13.8688 9.0375 14.6247 8.2375 15.3748C8.06042 15.5399 7.85052 15.6203 7.60781 15.6161C7.55156 15.6151 7.525 15.5858 7.52812 15.5284L7.85156 11.0119C7.85361 10.9917 7.8625 10.9733 7.87656 10.9602L16.4516 3.23738C16.4707 3.22057 16.4853 3.19927 16.494 3.17545C16.5028 3.15162 16.5054 3.12603 16.5016 3.10104C16.488 2.99761 16.4453 2.94381 16.3734 2.93963C16.1964 2.92813 16.0354 2.96783 15.8906 3.05873C12.3937 5.24853 8.87604 7.45505 5.3375 9.67828C5.28646 9.71067 5.23229 9.71746 5.175 9.69866C3.7 9.23374 2.21354 8.7683 0.715625 8.30234C0.367708 8.19369 0.129167 8.01138 0 7.75541V7.56736C0.201042 7.26438 0.524479 7.02722 0.970312 6.85588C6.82448 4.60757 12.6797 2.36188 18.5359 0.118793C18.6661 0.0686454 18.799 0.0341685 18.9344 0.015363C19.5729 -0.073441 19.9281 0.222746 20 0.903925Z" fill="white"/>
</svg>
