<svg width="40" height="40" viewBox="0 0 40 40" fill="none" xmlns="http://www.w3.org/2000/svg">
<rect width="40" height="40" rx="20" fill="#FFBA34"/>
<path d="M20.4498 10H21.1295C21.9555 10.0833 22.4779 10.1474 22.6967 10.1922C26.3795 10.9469 29.1764 13.8782 29.7999 17.5813C29.8874 18.0991 29.9541 18.6261 29.9999 19.1626V19.8767C29.8561 20.4486 29.5181 20.71 28.9858 20.6611C28.4483 20.6126 28.1858 20.1626 28.1671 19.6204C28.1233 18.3189 27.903 16.8063 27.2514 15.6548C25.9983 13.4349 24.1384 12.1771 21.6717 11.8813C21.0123 11.8031 19.8216 12.0016 19.6951 11.0469C19.6232 10.5052 19.8748 10.1563 20.4498 10Z" fill="white"/>
<path d="M30.0002 26.0002V26.4392C29.9544 26.5809 29.9101 26.722 29.8674 26.8627C29.5956 27.7486 28.544 28.8236 27.8455 29.3658C27.382 29.7262 26.844 29.9377 26.2314 30.0002H25.7455C25.582 29.9648 25.3361 29.8825 25.008 29.7533C20.8621 28.1294 17.3746 25.6455 14.5454 22.3017C12.7631 20.1944 11.3839 17.885 10.4078 15.3735C10.2464 14.9578 10.1104 14.475 10 13.925V13.3375C10.5292 12.2396 11.4198 11.339 12.6719 10.6359C13.8516 9.9734 14.7641 10.4468 15.5907 11.3937C16.372 12.2875 17.0266 13.1531 17.5548 13.9906C18.1095 14.8703 18.5126 15.9063 17.5798 16.7422C17.2423 17.0443 16.9037 17.3261 16.5641 17.5876C15.7423 18.2188 16.836 20.097 17.3282 20.7392C18.2168 21.8996 19.309 22.81 20.6048 23.4704C21.0533 23.7001 22.0595 24.1533 22.472 23.6626C22.7397 23.3449 23.0101 23.0241 23.283 22.7001C23.8908 21.9829 24.933 21.9314 25.7236 22.3595C27.1091 23.1074 28.4122 24.0454 29.6331 25.1736C29.7862 25.3142 29.9086 25.5897 30.0002 26.0002Z" fill="white"/>
<path d="M25.5017 18.9526C25.4939 16.551 24.0251 14.7806 21.6282 14.34C21.3084 14.2806 20.9964 14.2317 20.6923 14.1931C20.2063 14.1291 19.8407 13.6572 19.9313 13.165C20.0423 12.5556 20.5485 12.3618 21.1251 12.4228C24.7251 12.804 27.2611 15.1447 27.3314 18.8932C27.3424 19.4791 27.0642 20.0119 26.4252 19.9854C25.8116 19.9593 25.5038 19.6151 25.5017 18.9526Z" fill="white"/>
<path d="M22.9622 18.4934C22.8684 17.1996 22.2262 16.9387 21.0715 16.7715C20.0387 16.6215 20.1356 15.009 21.234 15.0137C23.3137 15.0246 24.6278 16.3278 24.7934 18.42C24.9028 19.7887 23.0653 19.9044 22.9622 18.4934Z" fill="white"/>
</svg>
