<svg width="40" height="40" viewBox="0 0 40 40" fill="none" xmlns="http://www.w3.org/2000/svg">
<rect width="40" height="40" rx="20" fill="#FFBA34"/>
<path d="M19.475 10H20.5828C23.8078 10.2812 26.337 11.7005 28.1703 14.2578C29.2557 15.7714 29.8656 17.5115 30 19.4781V20.5078C29.7344 23.8068 28.287 26.3818 25.6578 28.2328C24.063 29.3547 22.2354 29.9438 20.175 30H19.6891C17.8339 29.9177 16.1245 29.3797 14.5609 28.3859C14.5161 28.3578 14.4682 28.3516 14.4172 28.3672L10.7438 29.5422C10.6896 29.5599 10.6719 29.5417 10.6906 29.4875L11.8844 25.9375C11.9021 25.8865 11.8953 25.8391 11.8641 25.7953C10.7401 24.1964 10.1187 22.413 10 20.4453V19.4219C10.1417 17.5115 10.7312 15.8193 11.7687 14.3453C13.6167 11.7203 16.1854 10.2719 19.475 10ZM15.2297 14.925C13.7531 16.2719 14.0062 18.2719 15.0219 19.8609C15.5312 20.6578 16.1214 21.4286 16.7922 22.1734C18.0651 23.587 19.612 24.5974 21.4328 25.2047C22.7188 25.6328 23.6828 25.8234 24.9078 25.1094C25.7036 24.6458 26.074 23.8917 26.0187 22.8469C26.0158 22.7959 25.9999 22.7466 25.9725 22.7038C25.9451 22.6611 25.9072 22.6264 25.8625 22.6031C25.1604 22.2354 24.3646 21.8542 23.475 21.4594C23.1812 21.3281 22.9479 21.3786 22.775 21.6109C22.5188 21.9536 22.2599 22.2901 21.9984 22.6203C21.7203 22.9719 21.3297 22.8672 20.9672 22.7031C19.4026 21.9969 18.174 20.874 17.2812 19.3344C17.1719 19.1469 17.1859 18.9484 17.3406 18.7859C17.6083 18.5016 17.8542 18.2146 18.0781 17.925C18.1403 17.8437 18.18 17.7476 18.1932 17.6464C18.2064 17.5451 18.1925 17.4424 18.1531 17.3484C17.8281 16.5609 17.5135 15.8021 17.2094 15.0719C17.1281 14.8766 17.0094 14.65 16.7812 14.6109C16.1031 14.4943 15.5859 14.599 15.2297 14.925Z" fill="white"/>
</svg>
