<svg width="20" height="20" viewBox="0 0 20 20" fill="none" xmlns="http://www.w3.org/2000/svg">
<g id="Group">
<path id="Vector" d="M0 2.27483C0 1.61544 0.225232 1.07146 0.675676 0.642886C1.12612 0.214289 1.71172 0 2.43243 0C3.14029 0 3.71299 0.210985 4.15058 0.632996C4.60102 1.06818 4.82625 1.63523 4.82625 2.33417C4.82625 2.96717 4.60747 3.49465 4.16988 3.91666C3.71944 4.35184 3.12741 4.56944 2.39382 4.56944H2.37452C1.66666 4.56944 1.09396 4.35184 0.656371 3.91666C0.218784 3.48148 0 2.93419 0 2.27483ZM0.250965 19.5833V6.36952H4.53668V19.5833H0.250965ZM6.9112 19.5833H11.1969V12.2049C11.1969 11.7434 11.2484 11.3873 11.3514 11.1368C11.5315 10.6884 11.805 10.3092 12.1718 9.99935C12.5386 9.68944 12.9987 9.5345 13.5521 9.5345C14.9936 9.5345 15.7143 10.5301 15.7143 12.5214V19.5833H20V12.0071C20 10.0554 19.5496 8.57511 18.6486 7.56628C17.7477 6.55744 16.5573 6.05302 15.0772 6.05302C13.417 6.05302 12.1236 6.78492 11.1969 8.24872V8.28829H11.1776L11.1969 8.24872V6.36952H6.9112C6.93693 6.79151 6.94981 8.10365 6.94981 10.306C6.94981 12.5082 6.93693 15.6007 6.9112 19.5833Z" fill="#F7F9FC"/>
</g>
</svg>
