<svg width="20" height="20" viewBox="0 0 20 20" fill="none" xmlns="http://www.w3.org/2000/svg">
<g id="Group">
<path id="Vector" d="M10.0087 4.88678C9.83285 4.88678 9.65889 4.89575 9.4875 4.91331C9.3161 4.93087 9.14708 4.95688 8.98094 4.99103C8.8148 5.02518 8.6516 5.06747 8.49168 5.11738L8.02228 5.28974L7.57537 5.50554L7.15364 5.76215L6.75959 6.05688L6.39598 6.38718L6.06536 6.75047L5.77031 7.14407L5.51337 7.56542L5.29745 8.01181C5.23254 8.1645 5.17481 8.32103 5.12483 8.48083C5.07486 8.64063 5.03257 8.80376 4.99835 8.96971C4.96414 9.13565 4.93813 9.30449 4.92051 9.47575C4.90289 9.64702 4.89404 9.82079 4.89404 9.99648C4.89404 10.1722 4.90301 10.3459 4.92051 10.5172C4.9379 10.6871 4.96388 10.856 4.99835 11.0233C5.03257 11.1899 5.07486 11.3524 5.12483 11.5122C5.17481 11.672 5.23248 11.8285 5.29745 11.9812L5.51337 12.4276L5.77031 12.8489L6.06536 13.2425L6.39598 13.6058L6.75959 13.9361L7.15364 14.2309L7.57537 14.4875L8.02228 14.7033L8.49168 14.8756L8.98094 15.002C9.14837 15.0364 9.31744 15.0624 9.4875 15.0798C9.66068 15.0974 9.83465 15.1063 10.0087 15.1062C10.1846 15.1062 10.3586 15.0973 10.5299 15.0798C10.7 15.0624 10.869 15.0364 11.0365 15.002L11.5258 14.8756L11.9952 14.7033L12.442 14.4875L12.8638 14.2309L13.2579 13.9361L13.6216 13.6058L13.9522 13.2425L14.2472 12.8489L14.5042 12.4276L14.7201 11.9812L14.8927 11.5122C14.9427 11.3524 14.985 11.1893 15.0192 11.0233L15.097 10.5171C15.1146 10.3459 15.1236 10.1721 15.1236 9.99641C15.1236 9.82072 15.1146 9.64696 15.097 9.47569C15.0796 9.3058 15.0537 9.1369 15.0192 8.96964C14.985 8.80305 14.9427 8.64063 14.8927 8.48076L14.7201 8.01175L14.5042 7.56535L14.2472 7.14401L13.9522 6.75041L13.6216 6.38712L13.2579 6.05682L12.8638 5.76208L12.442 5.50547L11.9952 5.28967L11.5258 5.11732L11.0365 4.99097L10.5299 4.91325C10.3567 4.89556 10.1828 4.88671 10.0087 4.88672V4.88678ZM10.0087 6.65046C10.125 6.65046 10.2398 6.65622 10.3528 6.66763L10.686 6.71805L11.0078 6.80007L11.316 6.912L11.609 7.05232L11.8845 7.21923L12.1421 7.41126L12.3796 7.62667L12.5952 7.86387L12.7874 8.12119L12.9545 8.39709L13.0948 8.6899C13.137 8.79011 13.1744 8.89282 13.2069 8.99783C13.2395 9.10285 13.2668 9.21017 13.289 9.31948C13.3111 9.42879 13.3274 9.54002 13.3394 9.65298L13.3565 9.9968C13.3565 10.113 13.3508 10.2277 13.3394 10.3407C13.328 10.4537 13.3112 10.5649 13.289 10.6742C13.2667 10.7834 13.2393 10.8907 13.2069 10.9958L13.0948 11.3038L12.9545 11.5966L12.7874 11.8724L12.5952 12.1298L12.3796 12.367L12.1421 12.5824L11.8845 12.7744L11.609 12.9413L11.316 13.0817L11.0078 13.1936L10.686 13.2756L10.3528 13.326C10.2385 13.3374 10.1236 13.3432 10.0087 13.3431C9.89372 13.3432 9.77885 13.3374 9.66447 13.326L9.33129 13.2756C9.22192 13.2534 9.11453 13.226 9.00939 13.1936L8.7012 13.0817L8.40819 12.9413L8.13268 12.7744L7.8751 12.5824L7.63765 12.367L7.42204 12.1298L7.22982 11.8724L7.06272 11.5966L6.9224 11.3038L6.81027 10.9958L6.72826 10.6742L6.67783 10.3407C6.66637 10.2264 6.66064 10.1116 6.66066 9.9968C6.66064 9.88198 6.66637 9.76723 6.67783 9.65298C6.68918 9.54002 6.70603 9.42872 6.72826 9.31948C6.75027 9.21099 6.77767 9.10367 6.81034 8.9979L6.92247 8.68996L7.06279 8.39715L7.22989 8.12125L7.42211 7.86393L7.63771 7.62674L7.87517 7.41132L8.13274 7.2193L8.40825 7.05239L8.70126 6.91207C8.80211 6.86971 8.90499 6.83236 9.00952 6.80013L9.33142 6.71812C9.44079 6.69595 9.55215 6.67903 9.6646 6.66769C9.77897 6.65623 9.89385 6.6505 10.0088 6.65052L10.0087 6.65046Z" fill="#F7F9FC"/>
<path id="Vector_2" d="M15.3309 3.43359C15.2903 3.4336 15.2497 3.43565 15.2093 3.43974C15.1689 3.44383 15.1287 3.44994 15.0889 3.45807C15.0491 3.46619 15.0098 3.4763 14.971 3.48838C14.9322 3.50046 14.894 3.51449 14.8566 3.53041C14.8192 3.54635 14.7826 3.56416 14.747 3.58378C14.7113 3.60336 14.6767 3.62473 14.6432 3.64779C14.6097 3.67088 14.5773 3.69564 14.5462 3.72199C14.5152 3.7483 14.4855 3.77617 14.4572 3.80547C14.4289 3.8348 14.4021 3.86553 14.3768 3.89755C14.3516 3.92957 14.328 3.96284 14.306 3.99724C14.2841 4.03162 14.2639 4.06707 14.2455 4.10348C14.227 4.13991 14.2104 4.17725 14.1957 4.21535C14.181 4.25344 14.1682 4.29226 14.1573 4.33164C14.1465 4.37102 14.1376 4.41093 14.1307 4.4512C14.1238 4.49147 14.1189 4.53205 14.116 4.57281C14.1139 4.60168 14.1129 4.63062 14.1129 4.65957C14.1129 4.70046 14.1149 4.74132 14.119 4.78201C14.1231 4.82268 14.1291 4.86312 14.1372 4.90317C14.1453 4.94323 14.1553 4.98285 14.1673 5.0219C14.1793 5.06096 14.1933 5.09938 14.2091 5.13704C14.2249 5.1747 14.2426 5.21155 14.2621 5.24744C14.2815 5.28332 14.3028 5.31819 14.3257 5.35194C14.3486 5.38566 14.3732 5.41821 14.3994 5.44946C14.4255 5.48073 14.4532 5.51067 14.4824 5.53916C14.5115 5.56763 14.542 5.59462 14.5739 5.62002C14.6057 5.64544 14.6387 5.66924 14.6729 5.69133C14.7071 5.71343 14.7424 5.73379 14.7786 5.75233C14.8148 5.77089 14.8518 5.78761 14.8897 5.80244C14.9275 5.81724 14.9661 5.83014 15.0052 5.84107C15.0443 5.85199 15.084 5.86093 15.124 5.86786C15.164 5.87481 15.2043 5.87975 15.2448 5.88266C15.2735 5.8847 15.3023 5.88573 15.331 5.88573C15.3716 5.88574 15.4122 5.88371 15.4526 5.87964C15.493 5.87556 15.5332 5.86944 15.573 5.86132C15.6128 5.8532 15.6522 5.84309 15.691 5.83101C15.7298 5.81893 15.7679 5.8049 15.8053 5.78898C15.8427 5.77306 15.8793 5.75527 15.915 5.73567C15.9506 5.71607 15.9852 5.69469 16.0188 5.6716C16.0523 5.64853 16.0846 5.62379 16.1157 5.59747C16.1468 5.57113 16.1765 5.54324 16.2048 5.51392C16.2331 5.48459 16.2599 5.45386 16.2851 5.42184C16.3104 5.38982 16.334 5.35655 16.3559 5.32215C16.3778 5.28775 16.3981 5.25227 16.4165 5.21585C16.4349 5.17942 16.4515 5.14208 16.4663 5.10398C16.481 5.06588 16.4938 5.02707 16.5046 4.98768C16.5155 4.9483 16.5244 4.9084 16.5313 4.86812C16.5382 4.82786 16.5431 4.78727 16.546 4.74651C16.548 4.71764 16.549 4.6887 16.549 4.65976C16.549 4.61889 16.547 4.57805 16.5429 4.53738C16.5389 4.49671 16.5328 4.45627 16.5248 4.41622C16.5167 4.37616 16.5066 4.33654 16.4946 4.29749C16.4826 4.25843 16.4687 4.22001 16.4529 4.18235C16.437 4.14469 16.4194 4.10784 16.3999 4.07195C16.3804 4.03607 16.3592 4.00119 16.3362 3.96745C16.3133 3.9337 16.2887 3.90114 16.2625 3.86987C16.2364 3.83859 16.2087 3.80866 16.1796 3.78016C16.1504 3.75169 16.1199 3.72471 16.0881 3.6993C16.0563 3.67391 16.0232 3.65013 15.989 3.62806C15.9549 3.60596 15.9196 3.5856 15.8834 3.56706C15.8472 3.5485 15.8101 3.53178 15.7723 3.51695C15.7344 3.50214 15.6959 3.48925 15.6568 3.47832C15.6176 3.46738 15.578 3.45842 15.538 3.45147C15.498 3.44453 15.4576 3.43961 15.4171 3.43673C15.3884 3.43468 15.3597 3.43366 15.3309 3.43366V3.43359Z" fill="#F7F9FC"/>
<path id="Vector_3" d="M9.03884 0.000186332C8.48256 -0.000710689 7.98612 0.00159563 7.54017 0.00787478L6.34457 0.0399113C5.99038 0.0552888 5.67744 0.0753422 5.39655 0.101292C5.2561 0.114234 5.1236 0.128715 4.99801 0.144669C4.87851 0.159731 4.75933 0.177271 4.64055 0.197274C4.52746 0.216496 4.42014 0.237255 4.31724 0.259808C4.21434 0.282362 4.11605 0.306711 4.02122 0.332852C3.92852 0.358415 3.83654 0.386533 3.74539 0.417173C3.65607 0.447287 3.56893 0.479196 3.48288 0.513283C3.31078 0.581456 3.14291 0.657958 2.97004 0.743688C2.83702 0.809683 2.71413 0.876511 2.59739 0.947248C2.48065 1.01798 2.37006 1.09269 2.26178 1.17407C2.15026 1.25828 2.04278 1.34769 1.93968 1.44202C1.83191 1.54018 1.72183 1.64814 1.60746 1.76879C1.46375 1.91956 1.33887 2.06013 1.22802 2.19808C1.1726 2.26702 1.1207 2.3352 1.07181 2.40376C1.02347 2.47132 0.977247 2.54038 0.933223 2.61084C0.889654 2.68068 0.848391 2.7518 0.808922 2.82497C0.768837 2.8994 0.730954 2.975 0.69532 3.05166C0.622405 3.20826 0.55436 3.3769 0.486442 3.56514C0.436056 3.70431 0.390938 3.84533 0.351184 3.9879C0.310626 4.1336 0.274553 4.28603 0.242388 4.45089C0.210223 4.61575 0.182159 4.79304 0.157491 4.9891C0.130909 5.20402 0.109673 5.41956 0.0938028 5.63553C0.0758623 5.87299 0.0609974 6.13428 0.0488236 6.42511L0.0199908 7.39209L0.00448509 8.57085L0 9.99564L0.013135 12.0676L0.0541416 13.6374L0.0857296 14.2505L0.125199 14.7586C0.137851 14.8956 0.153681 15.0322 0.172677 15.1684C0.189977 15.2894 0.208558 15.3953 0.228548 15.4869C0.269111 15.6732 0.317076 15.8578 0.372328 16.0402C0.425232 16.2149 0.485731 16.3872 0.553655 16.5566C0.620419 16.7226 0.693462 16.8826 0.772913 17.0367C0.852363 17.1907 0.938221 17.3387 1.03049 17.4809C1.12275 17.6231 1.22142 17.7594 1.32676 17.8899C1.43198 18.0205 1.54389 18.1455 1.66205 18.2644C1.7804 18.3836 1.90521 18.497 2.03675 18.6047C2.16985 18.7137 2.3082 18.8162 2.4513 18.9117C2.58413 19.0005 2.71554 19.0818 2.84792 19.1564C2.98029 19.2311 3.11382 19.2988 3.25106 19.3604C3.38831 19.4219 3.52901 19.4773 3.676 19.5272C3.82298 19.577 3.97611 19.6214 4.13796 19.6607C4.29981 19.7001 4.47114 19.7346 4.65247 19.7647C4.83379 19.7948 5.02762 19.8207 5.2347 19.8429C5.44178 19.8651 5.66271 19.8835 5.9001 19.8989C6.13749 19.9143 6.39122 19.9266 6.66385 19.9364C7.085 19.9517 7.72253 19.9606 8.4577 19.964L10.8377 19.9592L13.0914 19.9276L13.9483 19.9035L14.5066 19.8748C14.6264 19.8651 14.7436 19.8535 14.8568 19.84C14.9699 19.8265 15.0816 19.811 15.1902 19.7935C15.2989 19.7759 15.4051 19.7563 15.5095 19.7345C15.6127 19.7131 15.7153 19.6891 15.8173 19.6626C15.9183 19.637 16.0179 19.6078 16.1164 19.5769C16.215 19.5459 16.3125 19.5125 16.4094 19.4766C16.5069 19.4405 16.6035 19.402 16.6992 19.3612C16.7955 19.3202 16.8916 19.2764 16.9881 19.2298C17.1363 19.1585 17.2556 19.0989 17.3604 19.0408C17.4589 18.9868 17.5538 18.9263 17.6445 18.8599C17.7339 18.794 17.8229 18.719 17.9254 18.6246C18.0279 18.5302 18.1441 18.4164 18.2879 18.2725C18.4143 18.1461 18.5209 18.0363 18.6129 17.9364C18.7048 17.8365 18.7823 17.7466 18.8502 17.66C18.915 17.5778 18.9753 17.4922 19.0309 17.4036C19.0852 17.3171 19.1351 17.2272 19.1861 17.1276C19.2627 16.9777 19.3309 16.8388 19.3919 16.7048C19.4512 16.5757 19.5054 16.4443 19.5543 16.3109C19.6025 16.1786 19.6442 16.044 19.6793 15.9076C19.7155 15.7673 19.7466 15.6191 19.7735 15.4566C19.8004 15.2942 19.8232 15.1173 19.8429 14.9198C19.8626 14.7224 19.8794 14.5041 19.8942 14.2589L19.9332 13.4358L19.9668 12.4121L19.9908 11.2716L20 10.0791L19.9786 7.73687L19.95 6.6878L19.9109 5.78707L19.8622 5.08483C19.8445 4.8894 19.8254 4.7355 19.8052 4.63145C19.7827 4.51647 19.7577 4.40203 19.7301 4.28821C19.7032 4.17745 19.6736 4.06736 19.6413 3.95804C19.6099 3.85153 19.5757 3.74584 19.5389 3.64107C19.5025 3.53759 19.464 3.43629 19.4236 3.33717C19.3832 3.23805 19.3395 3.14124 19.294 3.04647C19.2486 2.95171 19.2009 2.85925 19.1508 2.76891C19.1008 2.67856 19.0486 2.59046 18.9941 2.50454C18.9396 2.41862 18.8828 2.33488 18.8237 2.25338C18.7649 2.17214 18.7036 2.09275 18.6398 2.01535C18.5764 1.93836 18.5105 1.8634 18.4423 1.79058C18.3742 1.71784 18.3039 1.64729 18.2313 1.57901C18.1587 1.51071 18.084 1.44458 18.0068 1.38064C17.9294 1.31648 17.85 1.25475 17.7687 1.19553C17.6866 1.13571 17.6027 1.0784 17.517 1.02369C17.4303 0.968198 17.3418 0.915292 17.2519 0.865043C17.1604 0.813951 17.0675 0.765492 16.9732 0.719725C16.8167 0.64367 16.672 0.576202 16.53 0.516358C16.3904 0.456966 16.248 0.404217 16.1034 0.35829C15.958 0.312477 15.8066 0.273201 15.64 0.239306C15.4734 0.205412 15.2917 0.177156 15.0861 0.153128C14.8805 0.129101 14.6509 0.109687 14.3884 0.0935407C14.1258 0.0773943 13.8305 0.0647069 13.4933 0.0544552L12.3472 0.0288264L10.8968 0.011719L9.03948 0.00031343L9.03884 0.000186332ZM10.0035 1.76232L12.6819 1.77757L13.6923 1.79705C13.9706 1.80487 14.1829 1.81403 14.3074 1.8246C14.4695 1.83825 14.624 1.85535 14.7716 1.87586C14.9134 1.89543 15.0544 1.91977 15.1945 1.94884C15.3291 1.97703 15.4574 2.00907 15.5802 2.0452C15.7031 2.08134 15.8204 2.12183 15.933 2.16662C16.0455 2.21141 16.1532 2.26068 16.2568 2.31463C16.3596 2.36817 16.4594 2.42709 16.556 2.49115C16.6521 2.5549 16.7448 2.62359 16.8347 2.69759C16.9247 2.7716 17.0119 2.85092 17.097 2.93575C17.1869 3.02526 17.2698 3.11644 17.3463 3.2105C17.4224 3.30397 17.4929 3.40195 17.5573 3.50389C17.6224 3.60728 17.6811 3.71459 17.733 3.82521C17.786 3.93798 17.8337 4.05716 17.8765 4.18383C17.9193 4.3105 17.9574 4.44512 17.9912 4.58896C18.0265 4.74147 18.0562 4.89524 18.08 5.04997C18.1056 5.214 18.1275 5.38892 18.1461 5.5762C18.1647 5.76349 18.1801 5.9632 18.1928 6.17689C18.2029 6.34828 18.2117 6.57446 18.2192 6.84158L18.238 7.75238L18.2523 9.9834L18.236 12.2123L18.2164 13.1205L18.1894 13.781C18.1707 14.0903 18.151 14.3503 18.1274 14.5766C18.1155 14.6898 18.1027 14.7944 18.0885 14.8927C18.0752 14.9855 18.0594 15.0779 18.0412 15.1699C18.0245 15.2537 18.0052 15.3371 17.9832 15.4197C17.9621 15.4986 17.9384 15.5768 17.9121 15.654C17.8856 15.7317 17.8568 15.8085 17.8257 15.8845C17.7928 15.9646 17.7581 16.044 17.7216 16.1226C17.6891 16.1928 17.6549 16.261 17.6188 16.3275C17.5831 16.3932 17.5451 16.4578 17.505 16.521C17.4653 16.5836 17.4236 16.6444 17.3801 16.7032C17.3367 16.7619 17.2913 16.819 17.2438 16.8744C17.1965 16.9296 17.1472 16.9831 17.096 17.0346C17.0448 17.0862 16.9916 17.136 16.9365 17.184C16.8814 17.2321 16.8242 17.2782 16.7651 17.3227C16.7059 17.3672 16.6448 17.4098 16.5815 17.4507C16.5183 17.4916 16.453 17.5308 16.3857 17.5682C16.3184 17.6056 16.2489 17.6414 16.1775 17.6754C16.1048 17.71 16.0311 17.7423 15.9565 17.7724C15.8793 17.8035 15.8014 17.8325 15.7226 17.8592C15.5624 17.9138 15.3935 17.9618 15.2156 18.0031C15.0302 18.0459 14.8431 18.0809 14.6548 18.108C14.5824 18.1186 14.416 18.1286 14.1777 18.1378L13.2694 18.163L10.6943 18.1965L7.999 18.2007L6.94051 18.1894L6.2532 18.168L5.74639 18.1324C5.58902 18.1191 5.44268 18.1044 5.30556 18.0877C5.16845 18.0709 5.04075 18.0523 4.92061 18.0313C4.80677 18.0116 4.69361 17.9881 4.58135 17.9608C4.47898 17.9359 4.37766 17.9069 4.27764 17.8738C4.18121 17.8418 4.08901 17.8065 3.99931 17.7678C3.90961 17.729 3.82247 17.6865 3.73616 17.6401C3.64985 17.5937 3.56445 17.5434 3.47807 17.4885C3.41291 17.4471 3.34993 17.4052 3.28932 17.3608C3.2287 17.3164 3.17014 17.2721 3.11376 17.2257C3.05737 17.1793 3.00323 17.1315 2.95101 17.0823C2.89914 17.0333 2.84904 16.9825 2.80082 16.9299C2.75277 16.8775 2.70683 16.8236 2.66275 16.7677C2.61849 16.7116 2.57633 16.6539 2.53633 16.5947C2.49574 16.5346 2.45734 16.4731 2.42119 16.4102C2.38467 16.3467 2.34994 16.2811 2.31694 16.2135C2.28339 16.1445 2.25209 16.0745 2.22308 16.0035C2.1936 15.9312 2.16567 15.8566 2.1394 15.7796C2.08686 15.6255 2.04072 15.4615 2.00062 15.2866C1.96051 15.1117 1.92629 14.9259 1.89733 14.7279C1.86837 14.5299 1.84505 14.32 1.82646 14.0969C1.81275 13.9325 1.80186 13.6766 1.79353 13.3536L1.7761 12.2051L1.78251 9.27731L1.83294 6.47963L1.87138 5.49393L1.89316 5.16812C1.90073 5.08111 1.90854 5.01665 1.91655 4.97795C1.94295 4.85064 1.96954 4.73217 1.99703 4.62126C2.0227 4.51663 2.05127 4.41272 2.08269 4.30967C2.11255 4.21241 2.14401 4.1213 2.17765 4.03499C2.21009 3.95138 2.24624 3.86927 2.286 3.78889C2.32482 3.71072 2.36654 3.63588 2.41184 3.56303C2.45714 3.49018 2.50602 3.4195 2.55933 3.34922C2.61264 3.27893 2.67005 3.20954 2.73252 3.13919C2.79499 3.06883 2.86246 2.99778 2.93563 2.92454C3.02091 2.83878 3.10971 2.75659 3.20179 2.67818C3.28874 2.60421 3.37942 2.53472 3.47346 2.47001C3.56592 2.40593 3.66075 2.34891 3.75948 2.2965C3.85822 2.24409 3.96086 2.19674 4.06883 2.15413C4.17679 2.11152 4.2902 2.0734 4.41034 2.0388C4.53655 2.00339 4.66416 1.97319 4.79285 1.94826C4.92817 1.92173 5.07189 1.8986 5.22534 1.87842C5.3788 1.85824 5.54206 1.84081 5.71659 1.82569C5.83833 1.81518 6.04811 1.80583 6.32433 1.79795L7.32963 1.77808L10.0039 1.76174L10.0035 1.76232Z" fill="#F7F9FC"/>
</g>
</svg>
