<svg width="35" height="35" viewBox="0 0 35 35" fill="none" xmlns="http://www.w3.org/2000/svg">
<path d="M35 17.5C35 27.165 27.165 35 17.5 35C7.83502 35 0 27.165 0 17.5C0 7.83502 7.83502 0 17.5 0C27.165 0 35 7.83502 35 17.5ZM2.905 17.5C2.905 25.5606 9.43941 32.095 17.5 32.095C25.5606 32.095 32.095 25.5606 32.095 17.5C32.095 9.43941 25.5606 2.905 17.5 2.905C9.43941 2.905 2.905 9.43941 2.905 17.5Z" fill="white"/>
<path d="M19.5632 17.5001L22.9072 14.1562C23.4766 13.5867 23.4766 12.6636 22.9072 12.0941C22.3377 11.5246 21.4146 11.5246 20.8451 12.0941L17.5011 15.4381L14.1572 12.0941C13.5884 11.5246 12.6638 11.5246 12.0951 12.0941C11.5256 12.6636 11.5256 13.5867 12.0951 14.1562L15.439 17.5001L12.0951 20.8441C11.5256 21.4136 11.5256 22.3367 12.0951 22.9062C12.3795 23.1913 12.7528 23.3335 13.1261 23.3335C13.4995 23.3335 13.8728 23.1913 14.1572 22.9062L17.5011 19.5622L20.8451 22.9062C21.1302 23.1913 21.5028 23.3335 21.8761 23.3335C22.2494 23.3335 22.6221 23.1913 22.9072 22.9062C23.4766 22.3367 23.4766 21.4136 22.9072 20.8441L19.5632 17.5001Z" fill="white"/>
</svg>
