<svg width="8" height="12" viewBox="0 0 8 12" fill="none" xmlns="http://www.w3.org/2000/svg">
    <g id="Group 1">
        <path id="Vector" d="M0.727728 11.8798C0.808585 11.9599 0.901571 12 1.00669 12C1.1118 12 1.20478 11.9599 1.28564 11.8798L6.93755 6.27655C7.01841 6.19639 7.05884 6.10421 7.05884 6C7.05884 5.89579 7.01841 5.80361 6.93755 5.72345L1.28564 0.12024C1.20478 0.0400802 1.1118 0 1.00669 0C0.901571 0 0.808585 0.0400802 0.727728 0.12024L0.1213 0.721443C0.0404429 0.801603 1.43051e-05 0.893788 1.43051e-05 0.997996C1.43051e-05 1.1022 0.0404429 1.19439 0.1213 1.27455L4.88783 6L0.1213 10.7255C0.0404429 10.8056 1.43051e-05 10.8978 1.43051e-05 11.002C1.43051e-05 11.1062 0.0404429 11.1984 0.1213 11.2786L0.727728 11.8798Z" fill="#0292DE"/>
    </g>
</svg>
