<svg width="11" height="12" viewBox="0 0 11 12" fill="none" xmlns="http://www.w3.org/2000/svg">
                        <path id="Vector" d="M1.3245 6.31577L5.4929 1.8929C5.69364 1.67996 5.93194 1.51106 6.19419 1.39585C6.45644 1.28063 6.73752 1.22134 7.02136 1.22138C7.30521 1.22142 7.58627 1.28078 7.84849 1.39607C8.11072 1.51136 8.34897 1.68032 8.54966 1.89331C8.75034 2.1063 8.90952 2.35915 9.01811 2.63741C9.1267 2.91567 9.18257 3.2139 9.18253 3.51508C9.1825 3.81625 9.12655 4.11447 9.0179 4.3927C8.90924 4.67093 8.75 4.92374 8.54926 5.13667L3.54781 10.4435C3.36345 10.6391 3.1134 10.749 2.85268 10.749C2.59196 10.749 2.34191 10.6391 2.15755 10.4435C1.97319 10.2478 1.86962 9.98253 1.86962 9.70589C1.86962 9.42925 1.97319 9.16394 2.15755 8.96833L6.60338 4.2511C6.70749 4.13254 6.76418 3.97573 6.76148 3.81371C6.75879 3.65169 6.69693 3.4971 6.58893 3.38251C6.48094 3.26793 6.33525 3.20229 6.18255 3.19943C6.02985 3.19657 5.88206 3.25672 5.77033 3.36719L1.3245 8.08442C0.919097 8.51457 0.691344 9.09798 0.691344 9.70631C0.691344 10.3146 0.919097 10.898 1.3245 11.3282C1.7299 11.7583 2.27975 12 2.85307 12C3.4264 12 3.97624 11.7583 4.38164 11.3282L9.38231 6.02058C9.99665 5.35337 10.3383 4.45609 10.3332 3.52333C10.3281 2.59058 9.97659 1.69757 9.35497 1.038C8.73335 0.378437 7.89172 0.005492 7.01263 6.01716e-05C6.13355 -0.00537165 5.28788 0.357147 4.65907 1.00899L0.491447 5.43103C0.387331 5.54958 0.33065 5.70639 0.333344 5.86841C0.336038 6.03044 0.397897 6.18502 0.50589 6.29961C0.613883 6.4142 0.759577 6.47983 0.912278 6.48269C1.06498 6.48555 1.21276 6.42541 1.3245 6.31494V6.31577Z" fill="#566171"></path>
                      </svg>