<svg width="32" height="32" fill="none" xmlns="http://www.w3.org/2000/svg"><path opacity=".25" d="M9.286 4.043c0 .568-.707 1.267-1.03.498-.228-.56-1.014.087-1.014-.498s.446-.288 1.014-1.03c.567-.743 1.03.462 1.03 1.03Z" fill="#D89E50"/><path d="M2 14.91c0-.113.472.14.603.149 1.232.114 2.158-1.276 3.258-1.747 1.101-.472 2.621-.341 3.556-1.084.935-.742 1.223-2.219 1.957-3.232.734-1.014 2.062-1.616 2.525-2.77.463-1.153-.454-2.944.079-3.782.297-.23.65-.381 1.022-.437a1.93 1.93 0 0 1 .323 0h.874c1.459 0 2.7 1.214 4.132.69 1.433-.524 2.254 1.878 3.398 2.726 1.145.847 2.735 1.275 3.608 2.455.874 1.179.734 2.839 1.18 4.237.445 1.397 1.485 2.62 1.485 4.132 0 1.511-1.1 2.796-1.529 4.106-.428 1.31-.358 3.075-1.18 4.237-.82 1.162-2.445 1.608-3.59 2.455-1.144.848-2.035 2.307-3.355 2.76-1.319.455-2.857-.174-4.324-.174-1.468 0-2.997.612-4.316.175-1.32-.437-2.306-1.879-3.442-2.726-1.136-.847-2.77-1.284-3.59-2.455-.822-1.17-.743-2.84-1.18-4.272C3.057 18.92 2 17.733 2 16.247" fill="#FFBA55"/><path opacity=".25" d="M5.302 4.697c.166.437-.367.874-.83.874-.463 0-1.206-.55-.874-.874.332-.323.376-.087.874-.087s.63-.446.83.087ZM8.858 6.935c.218.445-.14 1.293.463.681.207-.198.39-.42.541-.664.131-.35-.218-.751-.463-.873-.41-.28-.734.471-.541.856Z" fill="#D89E50"/><path d="M27.605 12.141a9.655 9.655 0 0 1-.533-1.258c-.358-1.127-.375-2.437-.795-3.494.63 1.135.586 2.62.996 3.931.096.28.207.554.332.821Z" fill="#FFBA55"/><path d="m20.347 17.277-.132.07-.174.079c0 .07-.079.14-.122.21-.218.25-.451.486-.7.707-.07.1-.129.209-.174.323-.096.219-.42.053-.332-.166.174-.32.367-.628.576-.926a1.886 1.886 0 0 1-.498-.044c-.097.23-.208.455-.332.673-.393.743-.75 1.031-.2 1.747a1.817 1.817 0 0 1 .393 1.564 2.41 2.41 0 0 0 .585 1.826c.27.446.813 1.616 1.372 1.573a6.475 6.475 0 0 1-.804-2.438c0-.873-.76-1.537-.804-2.385-.044-.847.874-1.511 1.39-2.088a1.276 1.276 0 0 0 .331-1.092c-.102.144-.229.269-.375.367Z" fill="#F2B255"/><path opacity=".15" d="M13.237 20.012c0 1.748-.647-.14-2.368.918-1.511.926-3.337.943-2.219-.446.699-.873.34-2.944 1.974-2.254 1.791.752 2.613.009 2.613 1.782Z" fill="#5B2500"/><path opacity=".9" d="M13.235 19.855c0 .996-.21.83-.69.681a1.37 1.37 0 0 0 0-.192c0-1.747-.821-1.03-2.62-1.747a1.519 1.519 0 0 0-.577-.14c.21-.428.541-.655 1.258-.35 1.808.717 2.63-.034 2.63 1.748Z" fill="#5B2500"/><path d="M12.555 20.354a1.34 1.34 0 0 1 0 .192 1.844 1.844 0 0 0-1.677.236c-1.52.917-3.346.926-2.228-.428a9.81 9.81 0 0 0 .716-1.905c.2.008.396.056.577.14 1.79.725 2.612.018 2.612 1.765Z" fill="#5B2500"/><path d="M9.67 19.68a4.23 4.23 0 0 1 .873-.358c.786-.245.42.48.244.629a2.692 2.692 0 0 0-.873.471c-.385.358-.865-.533-.245-.742ZM11.734 19.742c.175-.07.28-.07.437.262.157.332-.254-.14-.376.131s-.323-.306-.061-.393Z" fill="#A54E14"/><path d="M7.103 8.646a.62.62 0 0 0-.184.524c0 .253.14.533.367.48.227-.052.297-.297.393-.358.096-.061.28-.105.35-.227.323-.515-.603-.812-.926-.42ZM6.367 11.617c0 .332.288.577.42.175.13-.402-.376-.69-.42-.175ZM3.746 10.655h-.043a.148.148 0 0 0-.044.192c.122.254.288.577.533.14.244-.437-.131-.786-.41-.402a.07.07 0 0 1-.036.07ZM4.025 9.31c.245-.323 0-.874-.419-.515l-.253.253a.157.157 0 0 0 0 .218c.21.192.437.341.672.044ZM10.185 7.327l-.061.104a.096.096 0 0 0 0 .07.227.227 0 0 0 .384.166c.201-.2 0-.559-.27-.402a.114.114 0 0 0-.053.062ZM10.947 4.304a.149.149 0 0 0 .192.227.358.358 0 0 0 .114-.166c.131-.42-.105-.253-.306-.061ZM6.533 6.594c-.078.14.122.367.306.437a.148.148 0 0 0 .2-.105 1.022 1.022 0 0 0-.052-.681.149.149 0 0 0-.253 0 2.709 2.709 0 0 0-.2.35ZM8.989 6.89c.218.446-.14 1.294.463.682.222-.194.416-.417.577-.664.122-.34-.228-.751-.463-.873-.49-.271-.813.471-.577.856Z" fill="#D89E50"/><path d="M7.103 8.646a.62.62 0 0 0-.184.524c0 .253.14.533.367.48.227-.052.297-.297.393-.358.096-.061.28-.105.35-.227.323-.515-.603-.812-.926-.42ZM6.367 11.617c0 .332.288.577.42.175.13-.402-.376-.69-.42-.175ZM3.746 10.655h-.043a.148.148 0 0 0-.044.192c.122.254.288.577.533.14.244-.437-.131-.786-.41-.402a.07.07 0 0 1-.036.07ZM4.025 9.31c.245-.323 0-.874-.419-.515l-.253.253a.157.157 0 0 0 0 .218c.21.192.437.341.672.044ZM10.185 7.327l-.061.104a.096.096 0 0 0 0 .07.227.227 0 0 0 .384.166c.201-.2 0-.559-.27-.402a.114.114 0 0 0-.053.062ZM10.947 4.304a.149.149 0 0 0 .192.227.358.358 0 0 0 .114-.166c.131-.42-.105-.253-.306-.061ZM6.533 6.594c-.078.14.122.367.306.437a.148.148 0 0 0 .2-.105 1.022 1.022 0 0 0-.052-.681.149.149 0 0 0-.253 0 2.709 2.709 0 0 0-.2.35Z" fill="#D89E50"/><path d="M6.594 6.611c0 .079.096.253.166.27.07.018.13-.191.122-.279-.009-.087 0-.192-.087-.192-.088 0-.158.14-.201.201ZM3.807 10.743a.14.14 0 0 0-.08.166c0 .07.053.157.123.14.07-.018.088-.175.088-.236s0-.105-.088-.079l-.043.01ZM3.458 9.118a.124.124 0 0 0 .192.158c.096-.079.148-.28.035-.28-.114 0-.166 0-.227.122ZM7.092 9.117a.122.122 0 0 0 .149.157c.105-.078.157-.244 0-.314s-.087.035-.149.157ZM9.329 6.88a.124.124 0 1 0 .192.158c.096-.078.149-.244 0-.314-.148-.07-.131.052-.192.157Z" fill="#F2B255"/><path d="M5.267 4.627c.166.428-.367.873-.874.873-.506 0-1.205-.559-.873-.873.332-.315.375-.088.873-.088s.673-.48.874.088Z" fill="#D89E50"/><path d="M5.005 4.576c.123.052.097.262 0 .358-.096.096-.384.131-.384-.009s.061-.096.157-.192.062-.236.227-.157Z" fill="#F2B255"/><path d="M9.286 3.911c0 .568-.707 1.267-1.03.498-.228-.56-1.014.07-1.014-.498 0-.568.446-.306 1.014-1.03.567-.726 1.03.462 1.03 1.03Z" fill="#D89E50"/><path d="M8.502 3.755c0 .235-.297.532-.428.21-.132-.324-.437 0-.437-.21s.192-.131.437-.429c.244-.297.428.166.428.429ZM17 9.477s-.254 3.17 2.218 1.852c2.473-1.32 0-.953-.471-.76-.472.192-1.04.35-1.337-.472-.061-.175.035-.56-.41-.62ZM8.99 4.035c0 .078 0 .401-.201.28-.201-.123 0-.272 0-.272s.13-.148.2-.008Z" fill="#F2B255"/><path opacity=".25" d="M5.257 19.916a3.495 3.495 0 0 0 .157 1.931c.367.699.944 1.267 1.328 1.948.28.498.63 1.057.917 1.581l.56.446c.768.646 1.188 1.52 1.913 2.14a2.3 2.3 0 0 0 .35.245.872.872 0 0 0 .261 0c.56-.096.787-.358 1.372-.28.422.056.837.153 1.24.289l.149.043a.605.605 0 0 1-.149-.043.227.227 0 0 1 .07-.385c.356-.073.72-.1 1.084-.078.751 0 1.983-1.669 2.62-1.564a2.682 2.682 0 0 0 1.966-.594.2.2 0 0 1 .245 0c.166.122.244.253.323.262a3.67 3.67 0 0 1-.192-1.066.394.394 0 0 1 .41-.463.472.472 0 0 1 .158 0h.113c.507.219 1.075.708 1.119 1.188 0 .201-.062.49-.498.708h-.053a.7.7 0 0 1-.681 0 .507.507 0 0 1-.175-.157 7.16 7.16 0 0 1-1.407.655c-.76.34-1.528.175-2.219.699-.629.549-1.414.888-2.245.97.722.35 1.526.495 2.324.419a7.4 7.4 0 0 0 2.237-.97c.2-.111.42-.188.646-.227.507-.751 2.01-1.04 2.621-1.25a1.11 1.11 0 0 0 .76-1.24c.023-.498.12-.99.288-1.459a.82.82 0 0 0 0-.358 2.89 2.89 0 0 1-1.529-.219 7.945 7.945 0 0 1-.794.385c-.376.122-.612.323-1.014.227s-.611-.428-1.022-.41c-.41.017-.917.462-1.337.786-.087.07-.218-.061-.148-.166l.043-.079c.105-.227.096-.498.184-.734.21-.594.376-.69.935-.768.707-.105.725-.577 1.205-.944.248-.123.519-.195.795-.21.079-.437.219-.821.455-.934.152-.063.316-.093.48-.088.378-.028.755.057 1.083.245a3.836 3.836 0 0 1 1.058 2.01 1.31 1.31 0 0 1 0 .532c.524.524 1.563.236 2.096-.07a1.302 1.302 0 0 0 .63-.873c.09-.443.316-.846.646-1.154a.923.923 0 0 1 .227-.148 4.37 4.37 0 0 1-.271-.577c-.245-.62 0-1.144-.28-1.747l-.096-.201c-.428 0-.716-.061-.873-.297a.313.313 0 0 1 0-.079c-.192-.27 0-.742.314-1.153v-.13c0-.717.979-1.95 1.145-2.299.177-.406.278-.841.297-1.284a.105.105 0 0 1 .192 0c.064.086.117.18.157.28.07-.166.088-.271-.078-.586-.402-.795-1.39-1.066-1.617-2-.148-.612.166-.996-.297-1.564a5.407 5.407 0 0 0-1.441-1.03c-.935-.604-1.835-1.652-2.123-1.39.129.117.235.256.314.41.37.641.589 1.359.638 2.097v.044c.032.046.067.09.105.131.394.312.715.705.944 1.153.174.455.28.918.471 1.372.14.342.22.705.236 1.074.072.052.129.121.166.201a.629.629 0 0 1-.061.586 1.384 1.384 0 0 1-.105.166v.585a.06.06 0 0 1-.091.028.06.06 0 0 1-.022-.028c0-.14 0-.28-.07-.41-.245.104-.463-.123-.682-.341l-.087-.088-.07-.07a.663.663 0 0 1-.157-.227.42.42 0 0 1 .35-.672h.2a9.025 9.025 0 0 0-.603-1.556 2.103 2.103 0 0 0-.423-.48.062.062 0 0 0-.075.018c-.195.47-.511.88-.917 1.188-.161.062-.334.09-.507.078a3.67 3.67 0 0 1-1.38 1.747c-.245.219-.743.516-.751.874.07.342.21.667.41.952.734 1.46.743 3.163-.463 4.255-.41.367-.751.253-1.214.367a1.231 1.231 0 0 0-.716.655c-.49.874-.682 2.49-1.67 2.883l-.322.131c-.05.152-.091.307-.123.463-.037.305-.057.61-.06.918a.122.122 0 1 1-.245 0 2.936 2.936 0 0 0-.446-.926l-.07-.088-.874.402a2.567 2.567 0 0 1-1.965-.087.674.674 0 0 1-.096.358.987.987 0 0 1-.385.375.874.874 0 0 1-1.066-.314.95.95 0 0 1-.148-.14.69.69 0 0 1-.218 0h-.088a.14.14 0 0 1-.112-.188.14.14 0 0 1 .051-.065l.245-.175a1.075 1.075 0 0 1 .288-.873c-.262-.35-.446-.77-.708-1.197a4.316 4.316 0 0 0-2.018-1.46l-2.044-.847Zm14.65-5.268a.149.149 0 0 1 .22-.192c.207.238.448.444.716.612.471.235.786.043 1.249.14.463.095.393.279.646.646.254.367.56.445.926.646a1.004 1.004 0 0 1 .76.655.97.97 0 0 1 0 .446c.072.343.026.7-.13 1.014-.245.454 0 .725.218 1.301.07.211.102.433.096.655a.14.14 0 1 1-.271.07 4.548 4.548 0 0 0-.376-.742 1.065 1.065 0 0 0-1.223-.201c-.917.288-1.826.472-1.494-.874a4.02 4.02 0 0 1 .262-.568 3.327 3.327 0 0 1 0-.402c-.043-.104-.13-.165-.148-.323-.044-.35.2-.681.131-1.013-.07-.332-.62-.69-.874-.987a5.645 5.645 0 0 1-.69-.76l-.017-.123ZM7.442 23.603a.13.13 0 0 1-.201.07 2.447 2.447 0 0 1-.402-.7 6.342 6.342 0 0 1 0-2.035.122.122 0 0 1 .21-.096c.856.778.367 1.817.393 2.761Z" fill="#EAA73B"/><path d="M3.137 16.596s2.01 2.76 1.948 4.988c-.061 2.228 2.298 3.189 2.298 3.189s-2.019-1.45-1.573-2.752c.446-1.302-2.306-5.347-2.673-5.425ZM17.41 3.86a7.312 7.312 0 0 0 2.936.471c.97-.227.873.874 1.459 1.031.585.157 1.371 2.053 2.227 2.018.857-.035.446.874-.82.821-1.268-.052-.184-1.747-1.6-1.747-1.415 0 .166-.865-1.266-1.258a10.797 10.797 0 0 1-2.936-1.337Z" fill="#F2B255"/><path d="M16.276 27.159h.052c.363-.046.711-.168 1.023-.359l.463-.28.104-.209c.019-.051.034-.104.044-.157a.636.636 0 0 0-.76-.69 6.714 6.714 0 0 0-1.747.384l-.14.079c-.122.065-.231.15-.323.253l-.07.105c.393.358.716.909 1.354.873Zm.2-.533a.428.428 0 0 1-.348-.376v-.061c.052-.262.384-.367.655-.428.19-.044.387-.044.576 0a.376.376 0 0 1 .324.384c0 .236-.324.358-.56.428l-.192.053c-.15.03-.304.03-.454 0Z" fill="#6D2F00"/><path d="M16.032 28.085h.42a.357.357 0 0 0 .095-.062h.044v-.087c.077-.09.15-.183.218-.28.074-.1.141-.205.201-.314V27.176l-.463.28a2.56 2.56 0 0 1-1.022.358h-.052c-.638 0-.961-.516-1.363-.918v.088a.973.973 0 0 0-.044.148v.184a.242.242 0 0 1 0 .079.272.272 0 0 0 0 .087.377.377 0 0 0 0 .096v.105l.052.122.044.079v.043h.393l1.477.158Z" fill="#5B2500"/><path d="M17.12 26.546c.237-.07.525-.192.56-.428a.376.376 0 0 0-.323-.384 1.293 1.293 0 0 0-.577 0c-.27.06-.603.166-.655.428v.061a.428.428 0 0 0 .35.376c.15.03.304.03.454 0l.192-.053Z" fill="#A54E14"/><path d="M17.036 17.785c.127-.159.216-.344.262-.542a2.63 2.63 0 0 0 .07-.28.51.51 0 0 0-.044-.122.357.357 0 0 0 0-.078.35.35 0 0 0-.559 0 3.804 3.804 0 0 0-.533.83v.087a.622.622 0 0 0 0 .219v.07c.236-.01.62.078.804-.184Zm-.131-.288a.227.227 0 0 1-.28 0s0-.297.088-.42a.786.786 0 0 1 .21-.236.218.218 0 0 1 .28 0c.069.105 0 .262-.053.385l-.061.096a.533.533 0 0 1-.184.175Z" fill="#6D2F00"/><path d="M17.296 18.238v-.052a.166.166 0 0 0 0-.061v-.053a1.312 1.312 0 0 0 0-.192c0-.07 0-.13-.043-.2v-.735a2.638 2.638 0 0 1-.07.28 1.363 1.363 0 0 1-.262.541c-.228.263-.568.175-.874.175v.053l.044.078H16.903l.393.166Z" fill="#5B2500"/><path opacity=".25" d="M17.238 18.3v-.262a1.526 1.526 0 0 0-.044-.193v-.104c0 .096-.044.192-.07.288 0-.096.044-.192.07-.288a.682.682 0 0 1 .096-.883.481.481 0 0 0-.043-.07.35.35 0 0 0-.56 0 3.65 3.65 0 0 0-.533.874v.079a.984.984 0 0 0 0 .218v.07a.122.122 0 0 0 0 .052.302.302 0 0 0 .044.07H17.124l.114.149Zm-.664-.752c-.079-.122 0-.288.087-.42a.709.709 0 0 1 .192-.27.21.21 0 0 1 .271 0c.079.105 0 .262-.052.384l-.053.097a.56.56 0 0 1-.166.183.236.236 0 0 1-.28.026Zm.218.463h-.07.07Z" fill="#5B2500"/><path d="M17.13 17.226c.062-.122.123-.28.053-.384a.218.218 0 0 0-.28 0 .786.786 0 0 0-.21.236c-.087.122-.174.297-.087.419 0 0 .088.122 0 0a.227.227 0 0 0 .28 0 .533.533 0 0 0 .166-.175l.079-.096Z" fill="#A54E14"/><path opacity=".25" d="M20.015 9.713h-.184l-.157.157-.079.062-.122.192-.079.087-.078.096v.053l-.053.07a.387.387 0 0 1-.07.096l-.07.113-.052.079-.044.07-.052.096-.07.105a3.684 3.684 0 0 0-.28.559.15.15 0 0 0 0 .06.874.874 0 0 0 .49.874c1.144.577 2.516 1.066 3.057.638a.524.524 0 0 0 .14-.166.935.935 0 0 0 .087-.524 1.369 1.369 0 0 0 0-.245v-.14c0-.052 0-.104-.043-.156a.654.654 0 0 1-.044-.14l-.052-.158a.76.76 0 0 0-.061-.148.677.677 0 0 1-.062-.14c-.183-.402-.305-.777-.445-1.083a1.675 1.675 0 0 0-.157-.28.56.56 0 0 0-.088-.113.734.734 0 0 0-.41-.262 1.005 1.005 0 0 0-.332 0 1.424 1.424 0 0 0-.69.148Zm-.988 2.717a.533.533 0 0 1 .446-.812.455.455 0 0 1 .437.183l.043.061c.035.063.062.131.079.201 0 .114.35.437.297.55-.21.411-1.092.114-1.302-.183Z" fill="#5B2500"/><path d="M21.866 13.208a.873.873 0 0 0 .096-.525c-.216.07-.448.07-.664 0l-.131-.052a.917.917 0 0 1-.236-.175c-.41-.393-.585-1.118-1.083-1.406a1.223 1.223 0 0 0-1.31 0l-.062.104a4.22 4.22 0 0 0-.288.56c.004.02.004.04 0 .06a.874.874 0 0 0 .49.874c1.144.577 2.515 1.066 3.057.638a.429.429 0 0 0 .13-.078Zm-3.014-.778a.533.533 0 0 1 .428-.786.462.462 0 0 1 .445.183v.061a.82.82 0 0 1 .088.201c0 .114.34.437.288.55-.157.385-1.04.088-1.25-.209Z" fill="#6D2F00"/><path d="M19.832 9.712h-.184l-.174.157-.079.062-.052.06a.341.341 0 0 0-.07.088l-.088.096-.052.053-.052.07a.88.88 0 0 1-.07.095l-.07.114v.079l-.044.07-.061.096a1.223 1.223 0 0 1 1.31 0c.498.288.673 1.013 1.084 1.406.068.07.148.13.236.175l.13.052c.216.07.449.07.665 0v-.244a.653.653 0 0 0 0-.14 1.059 1.059 0 0 0-.044-.157 1.254 1.254 0 0 0 0-.14l-.061-.157c0-.053-.044-.105-.061-.149l-.062-.14c-.183-.401-.297-.777-.445-1.083a1.673 1.673 0 0 0-.149-.28l-.087-.113a.786.786 0 0 0-.42-.262.987.987 0 0 0-.331 0 1.424 1.424 0 0 0-.315.044l-.454.148Z" fill="#5B2500"/><path d="M19.27 11.617a.533.533 0 0 0-.428.786c.21.297 1.092.594 1.276.2.052-.113-.262-.436-.289-.55a.821.821 0 0 0-.087-.2v-.062a.463.463 0 0 0-.472-.174Z" fill="#A54E14"/><path opacity=".25" d="M11.863 24.048v.175c.015.053.032.105.053.157a.236.236 0 0 0 .253.079c.323-.105.673-.271.69-.455v-.052a.21.21 0 0 0-.087-.114.088.088 0 0 0-.053-.044h-.06l-.289-.122h-.079a.307.307 0 0 0-.122 0l-.07.061-.236.315Zm.324.69c-.105 0-.123-.148-.062-.227a.122.122 0 0 1 .114-.044h.052s.149 0 .158.044c.008.044-.175.21-.262.21v.017Z" fill="#5B2500"/><path d="M12.861 24.354a.273.273 0 0 0-.078-.114.253.253 0 0 1-.123.131h-.07c-.157 0-.323-.096-.471-.06a.315.315 0 0 0-.236.253c.013.053.03.106.052.157a.244.244 0 0 0 .262.078c.315-.113.664-.27.682-.454-.009.053-.018.035-.018.009Zm-.707.42c-.105 0-.114-.15-.062-.228a.104.104 0 0 1 .114-.044h.21c.008 0-.166.289-.262.271Z" fill="#6D2F00"/><path d="M11.828 24.083v.236a.314.314 0 0 1 .236-.253c.149 0 .315.07.472.06h.07a.254.254 0 0 0 .122-.13h-.245l-.288-.123h-.079a.184.184 0 0 0-.13 0l-.062.062-.052.06-.044.088Z" fill="#5B2500"/><path d="M12.08 24.546c-.052.078 0 .21.061.227.096 0 .315-.087.271-.201-.044-.114-.131 0-.157 0h-.053a.105.105 0 0 0-.122-.026Z" fill="#A54E14"/><path opacity=".25" d="M24.89 19.601v-.052l-.874-1.442a1.153 1.153 0 0 0-1.354-.524 1.179 1.179 0 0 0-.655.524l-.874 1.494a1.048 1.048 0 0 0 1.529 1.38l.175-.122a4.054 4.054 0 0 1 1.817-.612c.375-.043.507-.183.236-.646Z" fill="#5B2500"/><path d="M24.89 19.48v-.053l-.874-1.441a1.153 1.153 0 0 0-1.354-.524 1.179 1.179 0 0 0-.655.524l-.874 1.494a1.048 1.048 0 0 0 1.529 1.38l.175-.122a4.053 4.053 0 0 1 1.878-.646c.314-.044.446-.184.175-.612Z" fill="#5B2500"/><path opacity=".15" d="M24.873 19.41a3.381 3.381 0 0 0-1.057.47l-.174.123a1.074 1.074 0 0 1-1.686-.786 1.092 1.092 0 0 1 .14-.612l.698-1.214a1.127 1.127 0 0 1 1.223.55l.874 1.442-.017.026Z" fill="#606060"/><path d="M22.765 19.794a.272.272 0 0 0 .166 0 .288.288 0 0 0 .088-.49 1.092 1.092 0 0 1-.289-.427c0-.088-.087-.114-.183 0a.576.576 0 0 0 .218.917Z" fill="#A54E14"/><path opacity=".25" d="m13.674 12.237-.961.56a.76.76 0 0 0-.35.873c.055.186.18.342.35.437l.996.576c.121.072.26.108.401.105a.717.717 0 0 0 .525-1.127l-.08-.113a2.622 2.622 0 0 1-.41-1.215c-.07-.183-.157-.28-.471-.096Z" fill="#5B2500"/><path d="m13.568 12.237-.96.56a.76.76 0 0 0-.35.873c.055.186.18.342.35.437l.995.576c.122.072.26.108.402.105a.717.717 0 0 0 .524-1.127l-.079-.113a2.62 2.62 0 0 1-.41-1.215c-.07-.183-.157-.28-.472-.096Z" fill="#5B2500"/><path opacity=".15" d="M13.55 12.246c.061.251.165.49.305.708l.088.122a.717.717 0 0 1-.524 1.127.812.812 0 0 1-.402-.105l-.813-.472a.751.751 0 0 1 .367-.812l.961-.56.018-.008Z" fill="#606060"/><path d="M13.802 13.652a.209.209 0 0 0 0-.105.193.193 0 0 0-.242-.115.193.193 0 0 0-.081.054.795.795 0 0 1-.288.192c-.053 0-.07.052 0 .122a.384.384 0 0 0 .611-.148Z" fill="#A54E14"/></svg>