<svg width="10" height="16" viewBox="0 0 10 16" fill="none" xmlns="http://www.w3.org/2000/svg">
<g id="Group">
<path id="Vector" d="M0.970386 15.8397C1.0782 15.9466 1.20218 16 1.34233 16C1.48248 16 1.60646 15.9466 1.71427 15.8397L9.25015 8.36874C9.35796 8.26186 9.41187 8.13894 9.41187 8C9.41187 7.86106 9.35796 7.73814 9.25015 7.63126L1.71427 0.160321C1.60646 0.0534402 1.48248 0 1.34233 0C1.20218 0 1.0782 0.0534402 0.970386 0.160321L0.161815 0.961924C0.0540057 1.0688 0.000100967 1.19172 0.000100967 1.33066C0.000100967 1.46961 0.0540057 1.59252 0.161815 1.6994L6.51718 8L0.161815 14.3006C0.0540057 14.4075 0.000100967 14.5304 0.000100967 14.6693C0.000100967 14.8083 0.0540057 14.9312 0.161815 15.0381L0.970386 15.8397Z" fill="#566171"/>
</g>
</svg>
