<svg width="35" height="35" viewBox="0 0 35 35" fill="none" xmlns="http://www.w3.org/2000/svg">
<path d="M6.83594 7.72461C6.83594 6.96945 7.44797 6.35742 8.20312 6.35742H26.7969C27.552 6.35742 28.1641 6.96945 28.1641 7.72461C28.1641 8.47976 27.552 9.09177 26.7969 9.09177H8.20312C7.44797 9.09177 6.83594 8.47976 6.83594 7.72461ZM28.1641 13.1933C28.1641 12.4382 27.552 11.8261 26.7969 11.8261H8.20312C7.44797 11.8261 6.83594 12.4382 6.83594 13.1933C6.83594 13.9486 7.44797 14.5605 8.20312 14.5605H26.7969C27.552 14.5605 28.1641 13.9486 28.1641 13.1933ZM8.20312 17.2949C7.44797 17.2949 6.83594 17.907 6.83594 18.6621C6.83594 19.4173 7.44797 20.0293 8.20312 20.0293H14.4922C15.2473 20.0293 15.8594 19.4173 15.8594 18.6621C15.8594 17.907 15.2473 17.2949 14.4922 17.2949H8.20312ZM29.5312 0H5.46875C2.45319 0 0 2.45319 0 5.46875V29.5312C0 32.5468 2.45319 35 5.46875 35H18C18.7552 35 19.3672 34.3879 19.3672 33.6328C19.3672 32.8777 18.7552 32.2656 18 32.2656H5.46875C3.96111 32.2656 2.73438 31.0389 2.73438 29.5312V5.46875C2.73438 3.96111 3.96111 2.73438 5.46875 2.73438H29.5312C31.0389 2.73438 32.2656 3.96111 32.2656 5.46875V17.2949C32.2656 18.05 32.8777 18.662 33.6328 18.662C34.3879 18.662 35 18.05 35 17.2949V5.46875C35 2.45319 32.5468 0 29.5312 0Z" fill="rgb(86, 97, 113)"/>
<path d="M17.8057 19.0441L17.8057 19.0441L22.3451 32.0144L22.3452 32.0144C22.6175 32.7925 23.6782 32.8989 24.0987 32.1882C24.0987 32.1882 24.0987 32.1882 24.0987 32.1882L25.3373 30.0945L29.2086 33.9654C29.2086 33.9654 29.2086 33.9654 29.2086 33.9654C29.588 34.3449 30.2033 34.3449 30.5827 33.9654C30.5827 33.9654 30.5827 33.9654 30.5828 33.9654L33.9654 30.5828C34.3447 30.2036 34.345 29.5879 33.9654 29.2084C33.9654 29.2084 33.9654 29.2084 33.9654 29.2084L30.0943 25.3376L32.1883 24.0988C32.8985 23.6787 32.7933 22.6177 32.0145 22.3451L19.0439 17.8058C18.2754 17.5368 17.5376 18.2776 17.8057 19.0441ZM25.8257 27.8344C25.8257 27.8344 25.8257 27.8344 25.8257 27.8344C25.3775 27.3861 24.6255 27.4805 24.3023 28.0268L23.4895 29.4007L20.3068 20.307L29.4009 23.4896L28.0266 24.3027C27.481 24.6254 27.3855 25.3775 27.8343 25.8263L31.904 29.8957L29.8956 31.9039L25.8257 27.8344Z" fill="rgb(86, 97, 113)" stroke="white" stroke-width="0.5"/>
</svg>
