<svg width="24" height="24" viewBox="0 0 24 24" fill="none" xmlns="http://www.w3.org/2000/svg">
<path d="M2.99999 21C2.44771 20.4477 2.44771 19.5523 2.99999 19L18.9998 3.00018C19.5521 2.4479 20.4475 2.4479 20.9998 3.00018C21.5521 3.55246 21.5521 4.44788 20.9998 5.00016L4.99997 21C4.44769 21.5523 3.55227 21.5523 2.99999 21Z" fill="#566171"/>
<path d="M3.00001 2.99999C3.55229 2.44771 4.44771 2.44771 4.99999 2.99999L20.9998 18.9998C21.5521 19.5521 21.5521 20.4475 20.9998 20.9998C20.4475 21.5521 19.5521 21.5521 18.9998 20.9998L3.00001 4.99997C2.44773 4.44769 2.44773 3.55227 3.00001 2.99999Z" fill="#566171"/>
</svg>
