<svg width="28" height="27" viewBox="0 0 28 27" fill="none" xmlns="http://www.w3.org/2000/svg">
<g id="Icon">
<path id="Vector" d="M20.0783 9.58109L24.8996 4.7801L23.1463 3.01941L18.325 7.82041L20.0783 9.58109ZM27.1343 4.0459C27.331 4.24336 27.429 4.48987 27.4283 4.78544C27.4277 5.08101 27.3287 5.3271 27.1312 5.52373L5.97007 26.5957C5.77261 26.7923 5.52609 26.8903 5.23053 26.8897C4.93496 26.889 4.68887 26.79 4.49224 26.5925L1.24788 23.3344C1.05125 23.137 0.953253 22.8905 0.953877 22.5949C0.954502 22.2993 1.05354 22.0532 1.251 21.8566L22.4121 0.784688C22.6096 0.58806 22.8561 0.490058 23.1517 0.490683C23.4473 0.491307 23.6933 0.590349 23.89 0.787809L27.1343 4.0459ZM5.25107 1.61872L6.85922 2.11473L5.24899 2.60394L4.75298 4.21209L4.26377 2.60186L2.65562 2.10585L4.26585 1.61664L4.76186 0.00848575L5.25107 1.61872ZM10.9926 4.29095L14.2089 5.28297L10.9884 6.26139L9.99638 9.47769L9.01796 6.25723L5.80166 5.26521L9.02213 4.28679L10.0141 1.07049L10.9926 4.29095ZM26.2469 12.1721L27.855 12.6681L26.2448 13.1573L25.7488 14.7655L25.2596 13.1553L23.6514 12.6593L25.2617 12.17L25.7577 10.5619L26.2469 12.1721ZM15.7601 1.64092L17.3682 2.13693L15.758 2.62614L15.262 4.23429L14.7728 2.62406L13.1646 2.12805L14.7749 1.63884L15.2709 0.0306847L15.7601 1.64092Z" fill="#0292DE"/>
</g>
</svg>
