<svg width="171" height="50" viewBox="0 0 171 50" fill="none" xmlns="http://www.w3.org/2000/svg">
<rect width="171" height="50" fill="none"/>
<path d="M165.859 34.3956C165.622 34.3989 165.394 34.3573 165.176 34.2679C164.954 34.1785 164.758 34.0508 164.588 33.8784C164.417 33.7092 164.286 33.5144 164.19 33.2877C164.096 33.0642 164.045 32.8311 164.042 32.5852C164.036 32.3425 164.077 32.1063 164.161 31.8764C164.247 31.6496 164.372 31.4485 164.537 31.2729C164.7 31.0941 164.889 30.9568 165.105 30.8609C165.323 30.7619 165.548 30.7109 165.786 30.7077C166.02 30.7013 166.248 30.7428 166.469 30.8322C166.688 30.9216 166.884 31.0525 167.054 31.2217C167.224 31.391 167.359 31.589 167.452 31.8125C167.549 32.036 167.597 32.2723 167.603 32.515C167.606 32.7608 167.568 32.9971 167.481 33.2238C167.395 33.4505 167.269 33.6549 167.105 33.8305C166.942 34.0061 166.752 34.1434 166.537 34.2424C166.322 34.3382 166.094 34.3892 165.859 34.3956Z" fill="#F08143"/>
<path d="M165.969 39.8878C165.731 39.8942 165.503 39.8495 165.285 39.76C165.063 39.6707 164.867 39.5429 164.697 39.3737C164.527 39.2045 164.395 39.0065 164.299 38.783C164.206 38.5595 164.154 38.3232 164.151 38.0805C164.145 37.8346 164.187 37.5984 164.27 37.3717C164.357 37.1418 164.482 36.9406 164.646 36.765C164.809 36.5894 164.999 36.4521 165.214 36.3531C165.432 36.2541 165.657 36.203 165.895 36.1998C166.129 36.1934 166.357 36.2381 166.579 36.3276C166.797 36.417 166.993 36.5447 167.163 36.7139C167.334 36.8831 167.469 37.0811 167.562 37.3046C167.658 37.5313 167.706 37.7644 167.712 38.0103C167.716 38.253 167.677 38.4893 167.59 38.7159C167.504 38.9458 167.379 39.147 167.215 39.3226C167.051 39.4982 166.862 39.6355 166.646 39.7345C166.431 39.8335 166.203 39.8846 165.969 39.8878Z" fill="#F08143"/>
<path d="M166.078 45.3838C165.84 45.3869 165.612 45.3454 165.394 45.256C165.172 45.1666 164.976 45.0357 164.806 44.8664C164.636 44.6972 164.504 44.4992 164.408 44.2757C164.315 44.0522 164.263 43.8159 164.26 43.5733C164.254 43.3274 164.295 43.0911 164.379 42.8644C164.466 42.6377 164.591 42.4334 164.755 42.2577C164.919 42.0821 165.108 41.9448 165.323 41.8458C165.542 41.7501 165.766 41.6989 166.004 41.6926C166.238 41.6894 166.466 41.7309 166.688 41.8203C166.906 41.9097 167.102 42.0406 167.273 42.2099C167.443 42.3791 167.577 42.5738 167.671 42.8006C167.767 43.0241 167.815 43.2571 167.822 43.503C167.825 43.7489 167.786 43.982 167.7 44.2119C167.613 44.4386 167.487 44.6398 167.324 44.8186C167.16 44.9942 166.97 45.1315 166.755 45.2273C166.54 45.3262 166.312 45.3774 166.078 45.3838Z" fill="#F08143"/>
<path d="M111.136 44.8696C111.57 44.8824 111.914 45.2432 111.901 45.6742C111.888 46.1053 111.528 46.4437 111.091 46.4342C110.854 46.4278 110.641 46.4182 110.465 46.4054C106.871 46.1787 104.652 44.9558 103.329 43.3209C102 41.6797 101.614 39.6521 101.669 37.8161C101.672 37.6597 101.679 37.5288 101.685 37.4266L101.688 37.401C101.846 33.1223 104.045 30.3763 106.852 29.1534C108.021 28.6457 109.293 28.4031 110.568 28.4286C111.839 28.4542 113.114 28.7479 114.283 29.3067C117.2 30.6957 119.48 33.7067 119.512 38.3142C119.512 38.7453 119.161 39.0965 118.728 39.0998H118.709C116.03 39.0455 113.313 38.9975 110.6 38.9465C108.127 38.9049 105.654 38.8602 103.262 38.8124C103.352 40.0481 103.718 41.3061 104.556 42.3407C105.622 43.6562 107.481 44.6492 110.561 44.8408C110.774 44.8568 110.966 44.8663 111.136 44.8696ZM107.481 30.5871C105.233 31.5674 103.461 33.7801 103.268 37.2478C105.702 37.2956 108.166 37.3404 110.625 37.3851C113.079 37.4298 115.532 37.4713 117.906 37.5192C117.646 34.0579 115.854 31.7877 113.606 30.7148C112.639 30.255 111.589 30.0155 110.539 29.9932C109.489 29.9708 108.442 30.1688 107.481 30.5871Z" fill="#00A0E3"/>
<path d="M111.137 44.336L111.15 44.3392C111.516 44.3488 111.84 44.5052 112.072 44.7511C112.303 44.9905 112.441 45.3163 112.434 45.6738H112.437L112.434 45.6866C112.425 46.0506 112.267 46.3731 112.02 46.603C111.776 46.8361 111.442 46.9734 111.079 46.9638C110.941 46.9607 110.828 46.9543 110.735 46.9511C110.604 46.9447 110.504 46.9415 110.431 46.9351C108.67 46.8233 107.219 46.4785 106.027 45.9644C104.676 45.3801 103.664 44.5786 102.916 43.6527C102.254 42.8385 101.811 41.9348 101.528 41.0088C101.208 39.9424 101.104 38.8407 101.136 37.7998C101.14 37.7073 101.14 37.6338 101.143 37.5795C101.146 37.4933 101.149 37.4262 101.153 37.3911V37.3815L101.156 37.356C101.236 35.239 101.802 33.4765 102.681 32.0683C103.674 30.4846 105.068 29.351 106.641 28.6677C107.258 28.3963 107.903 28.1984 108.558 28.0706C109.216 27.9429 109.898 27.8854 110.578 27.8982C111.262 27.9142 111.943 27.9972 112.602 28.1537C113.25 28.3069 113.892 28.5304 114.515 28.8274C116.147 29.6033 117.592 30.8614 118.594 32.592C119.487 34.1278 120.03 36.0373 120.046 38.3107C120.046 38.6747 119.898 39.0036 119.66 39.2431C119.545 39.3612 119.403 39.457 119.246 39.524V39.639L118.7 39.6294C117.342 39.6007 115.996 39.5751 114.66 39.5528C113.308 39.5273 111.95 39.5017 110.594 39.4762C109.358 39.457 108.118 39.4347 106.895 39.4091C105.861 39.3931 104.849 39.374 103.86 39.3548C103.924 39.7667 104.024 40.1787 104.168 40.5746C104.354 41.0823 104.618 41.5676 104.975 42.0082C105.481 42.6373 106.195 43.1833 107.174 43.592C108.076 43.9688 109.204 44.2242 110.597 44.3105C110.716 44.32 110.816 44.3264 110.89 44.3296C110.989 44.3328 111.07 44.336 111.137 44.3392V44.336ZM111.137 45.3992V45.4025L111.121 45.3992C111.018 45.3961 110.925 45.3929 110.841 45.3897C110.723 45.3833 110.623 45.3769 110.53 45.3705C109.011 45.2747 107.772 44.9938 106.763 44.5723C105.607 44.0933 104.756 43.4323 104.143 42.6724C103.709 42.1391 103.391 41.5484 103.166 40.9354C102.916 40.2553 102.781 39.5464 102.729 38.8504L102.684 38.2692L103.272 38.282C104.49 38.3043 105.703 38.3267 106.911 38.349C108.137 38.3746 109.374 38.3937 110.61 38.4161C111.966 38.4416 113.324 38.4672 114.676 38.4927C116.041 38.5151 117.387 38.5406 118.703 38.5693H118.729C118.796 38.5693 118.86 38.5406 118.906 38.4927C118.951 38.448 118.979 38.3842 118.979 38.3171C118.963 36.2384 118.475 34.5078 117.672 33.122C116.78 31.5862 115.501 30.4718 114.056 29.7853C113.513 29.5267 112.942 29.3287 112.354 29.1882C111.76 29.0477 111.156 28.9711 110.559 28.9583C109.962 28.9487 109.358 28.9998 108.761 29.1147C108.18 29.2297 107.607 29.4021 107.068 29.6384C105.687 30.2419 104.461 31.2381 103.59 32.6303C102.797 33.8948 102.292 35.4913 102.222 37.4198V37.4454L102.219 37.4677C102.215 37.5316 102.212 37.5827 102.209 37.6274C102.206 37.7009 102.203 37.7711 102.203 37.8285C102.174 38.7641 102.267 39.7508 102.553 40.7055C102.797 41.5101 103.179 42.2892 103.747 42.9885C104.393 43.7868 105.273 44.4797 106.455 44.9905C107.534 45.4567 108.867 45.7728 110.498 45.8751C110.604 45.8814 110.7 45.8878 110.78 45.891C110.896 45.8973 111.005 45.9006 111.108 45.9037C111.179 45.9037 111.243 45.8782 111.288 45.8335C111.333 45.7952 111.362 45.7377 111.369 45.6738H111.365L111.369 45.6579C111.369 45.5876 111.342 45.5238 111.297 45.4791C111.259 45.4344 111.201 45.4056 111.137 45.3992ZM107.698 31.0753C106.609 31.5479 105.646 32.3333 104.946 33.4381C104.383 34.3258 103.995 35.421 103.847 36.727C104.894 36.7493 105.922 36.7685 106.946 36.7877C108.173 36.81 109.403 36.8324 110.633 36.8547C111.859 36.877 113.087 36.8994 114.304 36.9217C115.328 36.9377 116.336 36.9569 117.313 36.976C117.139 35.6796 116.734 34.5781 116.163 33.6776C115.447 32.5409 114.47 31.7139 113.378 31.1934C112.938 30.9859 112.473 30.823 111.991 30.7113C111.506 30.5963 111.012 30.5325 110.527 30.5229C110.042 30.5133 109.554 30.5548 109.069 30.6474C108.597 30.74 108.135 30.8837 107.698 31.0753ZM104.043 32.873C104.862 31.5798 105.995 30.657 107.271 30.1014C107.784 29.8779 108.321 29.7118 108.867 29.6065C109.413 29.4979 109.981 29.45 110.549 29.4628C111.121 29.4756 111.689 29.5458 112.238 29.6735C112.781 29.8013 113.318 29.9896 113.838 30.2387C115.106 30.8422 116.236 31.8001 117.065 33.1125C117.811 34.2875 118.308 35.7467 118.44 37.4805L118.482 38.0617L117.897 38.0489C116.686 38.0265 115.485 38.0042 114.287 37.9818C113.07 37.9595 111.843 37.9372 110.617 37.9148C109.387 37.8924 108.157 37.8701 106.93 37.8477C105.684 37.8254 104.454 37.7998 103.259 37.7775L102.707 37.7679L102.736 37.2187C102.833 35.4785 103.311 34.0288 104.043 32.873Z" fill="#00A0E3"/>
<path d="M131.72 44.1445C132.263 43.9752 132.825 44.336 132.975 44.9459C133.123 45.5558 132.805 46.188 132.263 46.3572C127.902 47.7206 124.944 46.5711 123.222 44.2945C122.342 43.1259 121.803 41.6634 121.585 40.0957C121.373 38.5758 121.459 36.9537 121.822 35.4083C122.692 31.6884 125.149 28.3613 128.83 27.8631C133.566 27.2182 136.701 28.5656 138.383 32.0205C139.967 35.2646 140.121 40.3479 139.004 47.3918C138.904 48.0144 138.371 48.4327 137.815 48.3209C137.259 48.2092 136.887 47.6121 136.987 46.9862C138.024 40.4693 137.934 35.8777 136.595 33.1253C135.359 30.59 132.889 29.6257 129.07 30.1462C126.328 30.5166 124.475 33.0965 123.797 35.9926C123.505 37.2411 123.431 38.5407 123.601 39.7476C123.762 40.9035 124.151 41.9732 124.783 42.8098C126.016 44.4446 128.261 45.2269 131.72 44.1445Z" fill="#00A0E3"/>
<path d="M131.6 43.7642C131.626 43.7579 131.652 43.7483 131.68 43.7419C132.043 43.6557 132.403 43.7259 132.702 43.9112C132.991 44.0931 133.222 44.3837 133.334 44.7477C133.344 44.7764 133.354 44.8116 133.363 44.8499C133.459 45.249 133.405 45.6577 133.235 45.993C133.058 46.3442 132.759 46.6189 132.38 46.737C130.252 47.4043 128.434 47.4873 126.915 47.1425C125.193 46.7498 123.867 45.8078 122.904 44.5306C122.448 43.9303 122.081 43.2534 121.799 42.5318C121.507 41.7814 121.305 40.9799 121.189 40.153C121.079 39.3707 121.047 38.566 121.086 37.755C121.128 36.9375 121.244 36.1169 121.43 35.3187C121.905 33.2943 122.836 31.3785 124.169 29.9416C125.386 28.6325 126.934 27.7193 128.774 27.467C131.218 27.1349 133.254 27.3201 134.911 28.0385C136.587 28.7666 137.859 30.031 138.745 31.8479C139.561 33.5178 140.008 35.6539 140.104 38.2659C140.204 40.849 139.96 43.9048 139.398 47.4522C139.395 47.4746 139.388 47.5001 139.384 47.5224C139.304 47.9088 139.099 48.2345 138.822 48.4484C138.534 48.6719 138.167 48.7805 137.792 48.7199C137.77 48.7167 137.75 48.7135 137.734 48.7103C137.342 48.6305 137.021 48.3878 136.816 48.0557C136.616 47.7364 136.526 47.3341 136.591 46.9254C137.104 43.6908 137.342 40.9352 137.281 38.6522C137.224 36.4043 136.88 34.6226 136.231 33.3007C135.66 32.1256 134.805 31.3146 133.652 30.8612C132.471 30.3918 130.964 30.2897 129.121 30.5387C127.926 30.7015 126.911 31.3242 126.102 32.2215C125.181 33.2432 124.529 34.6194 124.185 36.0818C124.044 36.6885 123.957 37.308 123.925 37.9178C123.893 38.5213 123.915 39.1184 123.996 39.6932C124.073 40.2519 124.207 40.7883 124.4 41.2897C124.583 41.7622 124.818 42.1933 125.1 42.5732C125.694 43.3555 126.546 43.9271 127.686 44.1442C128.736 44.3486 130.033 44.256 131.6 43.7642ZM131.87 44.5146C131.861 44.5178 131.85 44.521 131.838 44.5242C130.139 45.0574 128.71 45.1533 127.534 44.9297C126.186 44.6679 125.171 43.9878 124.461 43.049C124.127 42.6052 123.858 42.1071 123.652 41.5738C123.437 41.0214 123.289 40.4243 123.202 39.8017C123.116 39.1791 123.09 38.5309 123.125 37.8763C123.157 37.2185 123.254 36.5544 123.405 35.9062C123.777 34.3161 124.49 32.8153 125.505 31.6914C126.436 30.66 127.618 29.9416 129.015 29.75C130.993 29.4818 132.631 29.6 133.948 30.1204C135.293 30.6505 136.292 31.5924 136.954 32.9526C137.65 34.3799 138.02 36.2702 138.081 38.633C138.142 40.9639 137.904 43.7642 137.381 47.0467C137.349 47.2638 137.394 47.4746 137.496 47.6374C137.589 47.7875 137.727 47.8993 137.892 47.9312H137.895L137.914 47.9344C138.065 47.9567 138.209 47.9152 138.328 47.8226C138.46 47.7204 138.559 47.5608 138.598 47.366C138.601 47.3564 138.604 47.3436 138.608 47.3309C139.163 43.8345 139.401 40.8266 139.304 38.2946C139.211 35.7944 138.79 33.7669 138.023 32.1927C137.224 30.5546 136.086 29.4179 134.59 28.7697C133.074 28.112 131.176 27.9459 128.88 28.2556C127.242 28.4792 125.855 29.303 124.76 30.4812C123.52 31.8159 122.653 33.6008 122.21 35.4975C122.033 36.2542 121.924 37.0269 121.886 37.7933C121.847 38.5532 121.879 39.31 121.982 40.0412C122.088 40.8139 122.278 41.5547 122.544 42.2444C122.801 42.9021 123.135 43.512 123.543 44.0548C124.397 45.1852 125.573 46.0185 127.095 46.3666C128.479 46.6795 130.155 46.5965 132.143 45.9739C132.307 45.9228 132.439 45.7982 132.522 45.6386C132.609 45.463 132.638 45.249 132.586 45.0383C132.583 45.0287 132.577 45.0096 132.57 44.9872C132.512 44.8084 132.407 44.6679 132.274 44.5848C132.153 44.5114 132.011 44.4827 131.87 44.5146Z" fill="#00A0E3"/>
<path d="M50.9163 41.8965C51.459 41.7273 52.021 42.085 52.1719 42.6948C52.3229 43.3079 52.0049 43.9401 51.459 44.1093C47.0979 45.476 44.1434 44.3265 42.422 42.0434C41.5389 40.8716 41.0026 39.4092 40.781 37.8414C40.5691 36.3183 40.659 34.6931 41.0187 33.1477C41.8889 29.4181 44.3489 26.0878 48.026 25.5865C52.7628 24.9415 55.8971 26.2922 57.5832 29.7534C59.1632 33.0007 59.3173 38.0905 58.1997 45.1439C58.1002 45.7729 57.5671 46.188 57.0115 46.0762C56.456 45.9645 56.0866 45.3674 56.1862 44.7415C57.2203 38.2118 57.1335 33.6138 55.7912 30.8614C54.5548 28.3197 52.0852 27.3523 48.2668 27.8727C45.5275 28.2463 43.6713 30.8295 42.9937 33.732C42.7014 34.9805 42.6276 36.2832 42.7978 37.4902C42.9583 38.6492 43.3469 39.7189 43.9796 40.5587C45.2128 42.1935 47.4608 42.979 50.9163 41.8965Z" fill="#EF7F1A"/>
<path d="M50.7596 41.3889C50.7789 41.3825 50.811 41.373 50.8495 41.3634C51.2478 41.2676 51.6428 41.3442 51.9703 41.5518C52.285 41.7466 52.5356 42.0659 52.6608 42.4586V42.4618C52.6704 42.4937 52.68 42.5289 52.6929 42.5703C52.7989 43.0014 52.7378 43.4421 52.5548 43.806C52.3621 44.186 52.0345 44.4862 51.6203 44.6171C49.4654 45.2908 47.6253 45.377 46.0838 45.0258C44.3304 44.6235 42.9752 43.6624 41.9956 42.3628C41.5332 41.7466 41.1607 41.0633 40.8717 40.3257C40.5762 39.5657 40.3707 38.7515 40.2551 37.9149C40.1427 37.123 40.1106 36.3088 40.1523 35.4914C40.1941 34.6612 40.3097 33.8342 40.4991 33.0264C40.9776 30.9765 41.9218 29.0383 43.2706 27.5822C44.507 26.2475 46.0806 25.3184 47.956 25.0629C50.4224 24.7245 52.4842 24.9128 54.1637 25.644C55.869 26.3848 57.1632 27.6748 58.0656 29.5204C58.8877 31.2127 59.3373 33.3681 59.4369 36.0023C59.5364 38.595 59.2924 41.6667 58.7271 45.227V45.2302L58.7143 45.3036C58.6276 45.7251 58.4028 46.0763 58.101 46.3094C57.7862 46.5553 57.3848 46.6734 56.9705 46.6064C56.9448 46.6032 56.9224 46.6 56.9063 46.5968C56.4759 46.5106 56.1227 46.2424 55.8979 45.8815V45.8784C55.6859 45.5335 55.5896 45.0992 55.657 44.6586C56.1709 41.4272 56.4053 38.6748 56.3475 36.3982C56.2897 34.1663 55.9493 32.4005 55.3102 31.0914C54.7546 29.9451 53.9197 29.1564 52.8021 28.7126C51.6396 28.2528 50.1559 28.1506 48.3382 28.3997C47.1789 28.5593 46.1898 29.166 45.3998 30.0409C44.4942 31.0467 43.8519 32.4037 43.5147 33.8502C43.3734 34.4505 43.2866 35.0603 43.2546 35.6638C43.2256 36.2609 43.2481 36.8516 43.3284 37.4168C43.4054 37.966 43.5371 38.496 43.7234 38.9878C43.9033 39.4508 44.1313 39.8723 44.4074 40.2394C44.9791 40.9994 45.8044 41.5518 46.9091 41.7657C47.94 41.9637 49.2149 41.8711 50.7596 41.3889ZM51.1 42.3947L51.0776 42.4011C49.3563 42.9408 47.9047 43.0397 46.7068 42.8099C45.3227 42.5416 44.2822 41.8423 43.5532 40.8781C43.2128 40.4214 42.9366 39.9138 42.7247 39.3645C42.5095 38.8026 42.3586 38.1959 42.2686 37.5637C42.1819 36.9314 42.1562 36.2737 42.1884 35.6096C42.2236 34.9422 42.32 34.2685 42.4742 33.6139C42.8499 32.0014 43.5757 30.4783 44.6065 29.3352C45.5571 28.2783 46.7646 27.5439 48.1969 27.3492C50.1976 27.0745 51.8579 27.1991 53.1939 27.7259C54.5748 28.2719 55.596 29.2362 56.2737 30.6284C56.977 32.0748 57.3527 33.9843 57.4137 36.3727C57.4747 38.7131 57.237 41.5262 56.7136 44.8215C56.6847 45.0067 56.7232 45.1854 56.8067 45.3228H56.8099C56.8838 45.4441 56.993 45.5335 57.1182 45.5559H57.1214L57.1343 45.5591C57.2435 45.5782 57.3559 45.5431 57.4458 45.4728C57.5518 45.3898 57.6353 45.2589 57.6674 45.0992C57.6706 45.0641 57.6706 45.0705 57.6738 45.0609C58.2262 41.5709 58.467 38.5663 58.3707 36.0406C58.2776 33.5564 57.8601 31.5416 57.1022 29.9834C56.3154 28.3709 55.201 27.2533 53.7366 26.6179C52.2433 25.9666 50.3678 25.8037 48.0974 26.1135C46.4916 26.3337 45.1332 27.1416 44.0574 28.3007C42.8338 29.6194 41.9796 31.3883 41.5397 33.2658C41.3662 34.013 41.2571 34.7794 41.2185 35.5393C41.18 36.2929 41.2121 37.0432 41.3117 37.768C41.4176 38.5312 41.6039 39.2624 41.8672 39.9457C42.1209 40.5907 42.4453 41.1942 42.8499 41.7242C43.6817 42.8322 44.8345 43.6496 46.3214 43.9913C47.6831 44.301 49.337 44.218 51.3024 43.6017C51.4308 43.5634 51.5336 43.4612 51.601 43.3303C51.6749 43.1834 51.6974 43.0014 51.6556 42.8194C51.6524 42.8099 51.646 42.7938 51.6396 42.7747C51.5946 42.6278 51.5079 42.5161 51.4019 42.449C51.312 42.3916 51.206 42.3692 51.1 42.3947Z" fill="#EF7F1A"/>
<path fill-rule="evenodd" clip-rule="evenodd" d="M9.91602 1H39.0115V48.6465H9.91602V1Z" fill="#008DD2"/>
<path fill-rule="evenodd" clip-rule="evenodd" d="M5.21142 1.21094C6.98412 1.21094 8.41964 2.64142 8.41964 4.40398C8.41964 6.16334 6.98412 7.59383 5.21142 7.59383C3.43872 7.59383 2 6.16334 2 4.40398C2 2.64142 3.43872 1.21094 5.21142 1.21094ZM5.21142 40.6035C6.98412 40.6035 8.41964 42.0339 8.41964 43.7933C8.41964 45.5558 6.98412 46.9863 5.21142 46.9863C3.43872 46.9863 2 45.5558 2 43.7933C2 42.0339 3.43872 40.6035 5.21142 40.6035ZM5.21142 32.7263C6.98412 32.7263 8.41964 34.1535 8.41964 35.9161C8.41964 37.6786 6.98412 39.106 5.21142 39.106C3.43872 39.106 2 37.6786 2 35.9161C2 34.1535 3.43872 32.7263 5.21142 32.7263ZM5.21142 24.8458C6.98412 24.8458 8.41964 26.2763 8.41964 28.0389C8.41964 29.8014 6.98412 31.2287 5.21142 31.2287C3.43872 31.2287 2 29.8014 2 28.0389C2 26.2763 3.43872 24.8458 5.21142 24.8458ZM5.21142 16.9686C6.98412 16.9686 8.41964 18.3991 8.41964 20.1584C8.41964 21.921 6.98412 23.3514 5.21142 23.3514C3.43872 23.3514 2 21.921 2 20.1584C2 18.3991 3.43872 16.9686 5.21142 16.9686ZM5.21142 9.09135C6.98412 9.09135 8.41964 10.5186 8.41964 12.2812C8.41964 14.0438 6.98412 15.4711 5.21142 15.4711C3.43872 15.4711 2 14.0438 2 12.2812C2 10.5186 3.43872 9.09135 5.21142 9.09135Z" fill="#EF7F1A"/>
<path d="M19.8974 37.1773C19.5634 38.1385 21.2237 38.6621 21.9238 39.2911C22.6271 39.9266 23.3304 40.3864 24.0305 40.6737C24.7884 40.9835 25.4371 41.0409 25.9959 40.8398C26.5579 40.6386 27.0332 40.2714 27.4314 39.7254C27.8264 39.1762 28.154 38.4961 28.4141 37.6882C28.6742 36.8804 28.8765 36.0119 29.021 35.0859C29.1752 34.1631 29.2844 33.2308 29.3486 32.2792C29.4128 31.3277 29.4481 30.4369 29.4642 29.6227C29.4867 28.8052 29.4867 28.0932 29.4642 27.4833C29.4514 26.8734 29.4417 26.4583 29.4321 26.2189C29.3775 24.5776 29.2908 22.9939 29.172 21.4676C29.0532 19.935 28.8219 18.3863 28.4815 16.809C28.398 16.4226 28.2631 16.1704 28.0801 16.049L23.7897 15.8894C23.5456 15.8862 23.3432 15.8415 23.1827 15.7744C22.7074 15.5797 22.2674 15.2189 21.8595 14.6824C21.4517 14.1492 21.1659 13.5074 21.0021 12.7538C20.8416 12.0002 20.7613 11.4095 20.7709 11.0008C20.7805 10.5825 20.8704 10.3016 21.0535 10.1643C21.2333 10.027 21.5095 9.99821 21.866 10.0748C22.2257 10.1515 22.6753 10.3047 23.2148 10.5283L23.4781 10.6368C23.7607 10.672 24.1204 10.7103 24.5604 10.7582C24.9939 10.7965 25.4853 10.8412 26.0216 10.8891C26.5579 10.9306 27.1231 10.9753 27.7268 11.0104C28.337 11.0583 28.944 11.103 29.5605 11.1477C30.174 11.1956 30.7873 11.2435 31.4039 11.301C32.0109 11.3457 32.5825 11.4031 33.122 11.4511C33.1573 11.4511 33.2761 11.4606 33.4753 11.4862C33.6712 11.5054 33.896 11.5341 34.1401 11.566C34.3873 11.5947 34.625 11.6299 34.8466 11.6586C35.0681 11.6873 35.2223 11.7192 35.2993 11.7512C35.4471 11.8119 35.6012 11.93 35.7489 12.0992C35.9031 12.2653 36.0348 12.4537 36.1536 12.6644C36.2724 12.8687 36.3816 13.1019 36.4811 13.3445C36.5839 13.6 36.6513 13.8139 36.6963 14.0215C36.8055 14.5259 36.7509 14.8964 36.5422 15.1454C36.3398 15.3976 36.0444 15.5733 35.6655 15.669C35.2801 15.7616 34.8594 15.816 34.3777 15.8032C33.9024 15.7968 33.4624 15.7968 33.0481 15.7968C32.6371 15.7936 32.2903 15.816 32.0077 15.8638C31.725 15.9022 31.5934 16.0298 31.603 16.2374C31.6961 16.9463 31.8085 17.735 31.9402 18.6194C32.0783 19.4943 32.1939 20.3341 32.2967 21.126C32.3127 21.3112 32.3674 21.7805 32.4476 22.5085C32.5376 23.2493 32.6242 24.1434 32.7238 25.1939C32.8137 26.238 32.9004 27.3779 32.9807 28.6041C33.0514 29.8302 33.0995 31.0308 33.1124 32.1994C33.122 33.4702 33.0642 34.7985 32.9293 36.1715C32.8008 37.5573 32.5696 38.8569 32.2517 40.083C31.9241 41.3091 31.4938 42.4075 30.9575 43.3687C30.4212 44.3298 29.7725 45.0386 28.9986 45.4857C28.8123 45.575 28.5875 45.6549 28.3274 45.7123C28.064 45.7762 27.7718 45.7954 27.441 45.7858C27.1134 45.7698 26.7602 45.7251 26.3877 45.6517C26.0055 45.5719 25.6234 45.4473 25.238 45.2877C24.5828 45.0195 23.8507 44.6171 23.0414 44.0647C22.2321 43.5219 21.3971 42.8737 20.5365 42.1234C19.679 41.373 18.828 40.546 17.9898 39.6488C17.1452 38.7451 16.0115 37.9884 15.6551 36.8357C14.1939 32.1068 21.1049 33.7161 19.8974 37.1773Z" fill="white" stroke="white" stroke-width="0.5" stroke-miterlimit="22.926"/>
<path d="M141.871 46.7311C141.829 45.2878 141.8 43.9468 141.788 42.7047C141.775 41.4658 141.765 40.2748 141.759 39.1349C141.756 37.995 141.749 36.8934 141.749 35.8237C141.74 34.754 141.723 33.662 141.691 32.5604C141.682 32.1261 141.634 31.711 141.553 31.3151C141.473 30.9128 141.421 30.4945 141.402 30.0667C141.409 29.9229 141.447 29.792 141.521 29.6707C141.605 29.559 141.698 29.4504 141.807 29.3674C141.919 29.2811 142.035 29.2109 142.173 29.1662C142.308 29.1183 142.439 29.0928 142.568 29.0928C142.851 29.0928 143.091 29.1311 143.304 29.2109C143.506 29.2939 143.682 29.3993 143.827 29.5334C143.978 29.6707 144.1 29.8335 144.186 30.0251C144.277 30.2135 144.354 30.4275 144.408 30.6605C144.508 31.0756 144.553 31.4971 144.54 31.925C144.533 32.3465 144.504 32.8127 144.466 33.3172C144.829 32.8574 145.211 32.4295 145.616 32.0271C146.017 31.6153 146.444 31.264 146.9 30.9543C147.35 30.6478 147.835 30.4019 148.345 30.2199C148.853 30.0315 149.402 29.9421 149.999 29.9421C150.266 29.9421 150.551 29.9932 150.85 30.0986C151.145 30.2007 151.428 30.3636 151.698 30.5839C151.965 30.8042 152.215 31.0948 152.443 31.4524C152.677 31.8133 152.864 32.2475 153.008 32.7616C153.355 32.404 153.718 32.0463 154.091 31.6791C154.467 31.3215 154.861 30.9926 155.266 30.7021C155.677 30.4147 156.101 30.1816 156.537 30.006C156.968 29.8272 157.414 29.7346 157.867 29.7346C158.542 29.7346 159.12 29.8399 159.608 30.0603C160.096 30.2742 160.517 30.5648 160.86 30.9256C161.197 31.2896 161.483 31.711 161.702 32.19C161.923 32.669 162.097 33.1799 162.225 33.7195C162.366 34.3134 162.466 34.9233 162.521 35.5459C162.585 36.1749 162.623 36.7752 162.649 37.334C162.697 38.7645 162.694 40.112 162.63 41.3828C162.575 42.6632 162.488 43.9468 162.379 45.2495C162.347 45.5593 162.325 45.8849 162.292 46.233C162.267 46.5715 162.212 46.894 162.138 47.1781C162.058 47.4655 161.942 47.705 161.795 47.8998C161.644 48.0914 161.442 48.1839 161.178 48.1839C160.587 48.1839 160.144 48.0658 159.865 47.8136C159.588 47.5677 159.393 47.2196 159.284 46.7598C159.254 46.6417 159.225 46.498 159.2 46.3383C159.171 46.1819 159.158 46.0255 159.168 45.8785C159.158 45.6966 159.187 45.4251 159.241 45.0739C159.302 44.7259 159.364 44.3491 159.434 43.9404C159.505 43.5381 159.572 43.1262 159.63 42.7111C159.694 42.3024 159.733 41.9447 159.736 41.635C159.742 41.105 159.746 40.4951 159.762 39.8022C159.771 39.1029 159.775 38.4037 159.765 37.7012C159.755 36.9891 159.73 36.3218 159.681 35.6864C159.64 35.0542 159.569 34.5401 159.476 34.1474C159.431 33.9589 159.37 33.777 159.296 33.595C159.222 33.4065 159.132 33.2469 159.03 33.116C158.917 32.9787 158.783 32.8638 158.628 32.7807C158.474 32.6945 158.291 32.6498 158.079 32.6498C157.774 32.6498 157.443 32.7552 157.071 32.9627C156.705 33.1735 156.339 33.4481 155.975 33.7833C155.61 34.1218 155.263 34.5082 154.941 34.9296C154.621 35.3511 154.36 35.7726 154.155 36.1941C154.017 36.491 153.872 36.7305 153.724 36.9125C153.577 37.0945 153.423 37.2414 153.252 37.334C153.246 37.3851 153.233 37.5479 153.217 37.8257C153.204 38.1035 153.188 38.4356 153.169 38.8219C153.15 39.2115 153.137 39.6266 153.117 40.0737C153.108 40.5271 153.095 40.9421 153.079 41.3317C153.066 41.718 153.06 42.0437 153.05 42.3088C153.04 42.5738 153.044 42.7174 153.05 42.743C153.06 43.0847 153.082 43.4423 153.117 43.8031C153.156 44.1671 153.194 44.5119 153.233 44.8472C153.268 45.1793 153.316 45.5337 153.371 45.9041C153.425 46.2841 153.439 46.6289 153.409 46.9578C153.384 47.2835 153.284 47.5485 153.117 47.7625C152.951 47.97 152.674 48.0754 152.282 48.0754C152.08 48.0754 151.881 48.0147 151.685 47.887C151.493 47.7689 151.31 47.6124 151.149 47.4208C150.979 47.226 150.834 47.0121 150.705 46.7726C150.574 46.5332 150.481 46.2905 150.413 46.0446C150.378 44.9334 150.365 43.9404 150.375 43.0591C150.385 42.1714 150.404 41.3189 150.433 40.5079C150.458 39.6968 150.481 38.8826 150.494 38.0652C150.503 37.2478 150.49 36.3474 150.462 35.3639C150.452 35.1308 150.439 34.8977 150.417 34.671C150.391 34.4443 150.359 34.2431 150.32 34.0739C150.25 33.777 150.138 33.5311 149.989 33.3427C149.848 33.1543 149.649 33.0585 149.399 33.0585C148.987 33.0585 148.599 33.1607 148.239 33.3618C147.88 33.563 147.52 33.8855 147.148 34.3134C146.778 34.7412 146.383 35.2873 145.966 35.9546C145.542 36.6156 145.066 37.4106 144.53 38.3366C144.495 38.5186 144.469 38.8635 144.463 39.368C144.453 39.8724 144.447 40.4089 144.444 40.9741C144.444 41.536 144.444 42.0629 144.447 42.5482C144.453 43.0335 144.46 43.3529 144.466 43.5189C144.482 44.0362 144.508 44.4705 144.556 44.8153C144.598 45.1665 144.636 45.4826 144.671 45.7668C144.687 45.9169 144.713 46.1564 144.755 46.498C144.8 46.8365 144.803 47.1781 144.784 47.523C144.755 47.8615 144.684 48.1712 144.559 48.4362C144.424 48.7012 144.209 48.8321 143.894 48.8321C143.432 48.8321 143.014 48.6757 142.649 48.366C142.276 48.0658 142.035 47.673 141.922 47.2069C141.9 47.1206 141.887 47.0377 141.881 46.9706C141.874 46.894 141.868 46.8109 141.871 46.7311Z" fill="#00A0E3"/>
<path d="M96.7279 44.6427C96.6028 41.8743 96.5287 39.0804 96.5062 36.2578C96.4872 33.4383 96.4552 30.6444 96.4131 27.8665C96.4006 26.7202 96.3846 25.6697 96.3585 24.7309C96.3396 23.7826 96.3076 22.9268 96.2625 22.1573C96.2269 21.3974 96.1659 20.6981 96.0953 20.0723C96.0277 19.4496 95.9347 18.8685 95.8226 18.3289C95.803 18.2267 95.7775 18.115 95.7515 17.9968C95.726 17.8691 95.6874 17.7126 95.6358 17.5274C95.5143 17.5274 95.2701 17.62 94.8912 17.8084C94.5183 17.9872 94.082 18.2267 93.5869 18.5332C93.0925 18.8334 92.5791 19.1686 92.036 19.5422C91.4936 19.919 91.005 20.3022 90.5557 20.6885C90.2023 20.9887 89.9035 21.2345 89.6628 21.4325C89.4221 21.6369 89.2099 21.7901 89.0302 21.9019C88.847 22.0041 88.6804 22.0807 88.5162 22.1254C88.3591 22.1669 88.1919 22.1829 88.0087 22.1829C87.6394 22.1829 87.2801 21.9881 86.9232 21.5858C86.5705 21.1835 86.3292 20.6726 86.1946 20.0307C86.1175 19.6636 86.0754 19.3474 86.0725 19.0729C86.0695 18.7919 86.098 18.5524 86.1691 18.3289C86.2331 18.115 86.3452 17.9106 86.4993 17.7158C86.6505 17.5274 86.8432 17.3294 87.0774 17.1315C89.6498 14.9283 92.3828 13.3126 95.2766 12.2876C98.1697 11.2627 101.179 10.7422 104.307 10.7422C104.557 10.7422 104.86 10.7486 105.212 10.7678C105.563 10.7837 105.932 10.8188 106.301 10.8604C106.68 10.9018 107.046 10.9561 107.406 11.0328C107.772 11.1094 108.097 11.1924 108.382 11.2946C108.684 11.4159 108.973 11.6554 109.253 12.0226C109.532 12.3898 109.722 12.7825 109.808 13.2009C109.879 13.5361 109.921 13.8586 109.949 14.1779C109.972 14.4941 109.956 14.7654 109.898 15.0049C109.834 15.2348 109.734 15.4232 109.59 15.5605C109.448 15.7074 109.246 15.7744 108.996 15.7744C108.552 15.7138 108.038 15.6275 107.457 15.5254C106.882 15.4232 106.308 15.3721 105.749 15.3721C104.618 15.3721 103.504 15.4168 102.396 15.4935C101.291 15.5605 100.19 15.784 99.0887 16.1512C99.0335 16.1832 99.0175 16.2789 99.0276 16.4162C99.04 16.5599 99.0661 16.7387 99.0981 16.9527C99.2487 17.8595 99.3584 18.645 99.429 19.3283C99.506 20.0116 99.5511 20.7045 99.5671 21.3878C99.5861 22.0711 99.5861 22.8087 99.5671 23.6038C99.557 24.3957 99.5475 25.3472 99.541 26.4583C99.5315 27.5663 99.5286 28.8915 99.538 30.4401C99.541 31.9759 99.5831 33.8502 99.6536 36.0374L99.8108 40.8909C99.8368 42.0116 99.8943 43.0111 99.9649 43.9083C100.032 44.796 100.119 45.6772 100.222 46.549C100.232 46.8299 100.103 47.095 99.8368 47.3504C99.5766 47.5995 99.2298 47.7271 98.7928 47.7271C98.5426 47.7271 98.2919 47.625 98.0512 47.4366C97.8105 47.2482 97.5852 47.0024 97.3925 46.7022C97.1939 46.3957 97.0397 46.07 96.9141 45.7124C96.7919 45.3516 96.7279 44.9939 96.7279 44.6427Z" fill="#00A0E3"/>
<path d="M60.6797 41.8162C60.6893 41.5192 60.7568 41.2319 60.8852 40.9541C61.02 40.6731 61.1678 40.4017 61.341 40.1526C61.5147 39.9004 61.6943 39.68 61.8775 39.4853C62.0637 39.2937 62.2214 39.1373 62.3464 39.0095C62.7638 38.4795 63.2517 37.86 63.8078 37.1512C64.3633 36.4391 64.9218 35.6952 65.4838 34.9224C66.0494 34.1529 66.5889 33.3834 67.0929 32.6139C67.5968 31.8444 68.0177 31.1419 68.3485 30.5033C68.0207 30.4426 67.6229 30.3788 67.1634 30.2989C66.7045 30.2191 66.2451 30.1393 65.7856 30.0594C65.3267 29.9796 64.8963 29.9062 64.4979 29.8391C64.0966 29.7689 63.8013 29.7178 63.5956 29.6763C63.3614 29.6284 63.1397 29.5486 62.9215 29.4336C62.7028 29.325 62.4976 29.1717 62.3079 28.9738C62.1247 28.7822 61.9611 28.5459 61.823 28.2809C61.6819 28.0159 61.5787 27.6998 61.5147 27.3517C61.4471 26.9973 61.4666 26.6876 61.5852 26.4257C61.6943 26.1607 61.871 26.0234 62.1182 26.0234C62.3109 26.0841 62.5101 26.1448 62.7063 26.1991C62.902 26.2533 63.1172 26.3044 63.3389 26.3491C63.994 26.4832 64.6876 26.5758 65.4133 26.6173C66.1425 26.6684 66.8616 26.7036 67.5808 26.7259C68.297 26.7451 68.9942 26.777 69.6842 26.8185C70.3654 26.8536 70.9915 26.9302 71.56 27.0484C71.7847 27.0931 71.9709 27.1506 72.1316 27.2336C72.2922 27.3134 72.4369 27.4156 72.575 27.5465C72.7096 27.6806 72.8477 27.8403 72.9764 28.0255C73.111 28.2202 73.2586 28.4534 73.4323 28.7343C73.5028 28.8589 73.5574 28.961 73.5829 29.0441C73.6054 29.1175 73.6279 29.2005 73.641 29.2644C73.6985 29.5901 73.6985 29.8838 73.641 30.1361C73.5799 30.3883 73.4708 30.6406 73.3102 30.88C73.1916 30.8833 73.0374 30.9631 72.8412 31.1195C72.6456 31.2728 72.4238 31.4803 72.1831 31.7262C71.9359 31.9593 71.6851 32.2371 71.4249 32.5468C71.1616 32.8565 70.9115 33.1599 70.6702 33.4537C70.4229 33.7538 70.2018 34.0347 69.999 34.2934C69.7998 34.5552 69.6427 34.7596 69.5206 34.9097L69.386 35.0693C69.2574 35.2322 69.0617 35.4844 68.7979 35.8356C68.5382 36.1869 68.246 36.5892 67.9152 37.0394C67.5938 37.4896 67.26 37.9718 66.9097 38.4795C66.5563 38.9872 66.2131 39.4757 65.8888 39.9482C65.5645 40.4177 65.2722 40.8487 65.0024 41.2383C64.7386 41.6246 64.5335 41.9312 64.3954 42.1706C64.4564 42.2089 64.54 42.2409 64.6396 42.2664C64.7422 42.2951 64.8323 42.3143 64.9254 42.3335C65.2657 42.4037 65.651 42.4388 66.0749 42.4293C66.4988 42.4165 66.9162 42.4197 67.3401 42.4421L71.7171 42.5506C71.8588 42.474 72.064 42.4069 72.3533 42.359C72.639 42.3079 72.9118 42.2632 73.1785 42.2409L73.6505 42.193C73.8817 42.1706 74.0678 42.1355 74.219 42.0908C74.3637 42.0429 74.4953 42.0078 74.6044 41.9663C74.717 41.928 74.8225 41.8992 74.9156 41.8833C75.0217 41.8769 75.1409 41.88 75.285 41.9088C75.5197 41.9567 75.7219 42.0493 75.8891 42.1866C76.0658 42.3271 76.2098 42.4963 76.329 42.6943C76.4576 42.9019 76.5697 43.1285 76.6693 43.3936C76.7689 43.649 76.875 43.9236 76.9841 44.2174C76.9841 44.4537 76.9586 44.674 76.907 44.8943C76.8525 45.105 76.7754 45.2838 76.6758 45.4307C76.5792 45.5872 76.4576 45.7022 76.3254 45.7851C76.1843 45.8618 76.0367 45.8873 75.8695 45.8554C75.767 45.8331 75.6484 45.7724 75.4972 45.6734C75.3176 45.6798 75.0478 45.6862 74.6909 45.7053C74.3376 45.7213 73.8562 45.7372 73.2556 45.7628C72.6521 45.7851 71.9134 45.8011 71.0271 45.8171C70.1467 45.8395 69.0872 45.849 67.8606 45.8554C67.7385 45.8586 67.5262 45.8586 67.2019 45.8331C66.8871 45.8171 66.5468 45.7979 66.187 45.7724C65.8307 45.75 65.4904 45.7213 65.1661 45.6894C64.8418 45.651 64.623 45.6287 64.4979 45.6032C64.1547 45.5329 63.7788 45.4084 63.3739 45.2264C62.9725 45.0539 62.5907 44.824 62.2214 44.5463C61.852 44.2685 61.5307 43.9396 61.2577 43.5628C60.9848 43.186 60.8049 42.7709 60.7214 42.3207C60.6957 42.177 60.6829 42.0142 60.6797 41.8162Z" fill="#EF7F1A"/>
<path d="M77.9961 41.9441C78.0085 41.6472 78.0761 41.3598 78.2048 41.0788C78.3394 40.801 78.487 40.5296 78.6607 40.2806C78.8338 40.0283 79.014 39.808 79.1966 39.6132C79.3798 39.4216 79.5375 39.2651 79.6626 39.1375C80.08 38.6074 80.5715 37.9879 81.127 37.2791C81.6825 36.5671 82.2415 35.8231 82.8 35.0504C83.3656 34.2808 83.9051 33.5113 84.412 32.7418C84.9165 31.9723 85.3369 31.2698 85.6677 30.6312C85.3404 30.5737 84.942 30.5035 84.4831 30.4237C84.0237 30.347 83.5642 30.2672 83.1053 30.1874C82.6459 30.1075 82.2125 30.0341 81.8177 29.967C81.4163 29.8968 81.1205 29.8457 80.9147 29.8042C80.6806 29.7563 80.4559 29.6764 80.2377 29.5615C80.0189 29.4529 79.8168 29.2997 79.627 29.1017C79.4409 28.9101 79.2773 28.6739 79.1421 28.4088C78.998 28.1438 78.8949 27.8277 78.8308 27.4797C78.7668 27.1252 78.7858 26.8155 78.9014 26.5537C79.014 26.2887 79.1907 26.1514 79.4379 26.1514C79.6306 26.212 79.8298 26.2727 80.0254 26.327C80.2211 26.3813 80.4333 26.4323 80.6551 26.477C81.3131 26.6112 82.0038 26.7038 82.7324 26.7452C83.4616 26.7964 84.1808 26.8314 84.897 26.8538C85.6167 26.873 86.3133 26.9049 87.004 26.9464C87.6846 26.9815 88.3077 27.0582 88.8792 27.1763C89.1009 27.221 89.2871 27.2785 89.4507 27.3615C89.6084 27.4413 89.753 27.5435 89.8941 27.6744C90.0293 27.8086 90.1669 27.9682 90.2955 28.1534C90.4307 28.3482 90.5783 28.5813 90.7485 28.8622C90.822 28.9867 90.8735 29.089 90.899 29.172C90.9251 29.2454 90.9477 29.3284 90.9571 29.3923C91.0182 29.718 91.0182 30.0117 90.9601 30.264C90.8961 30.5162 90.79 30.7685 90.6293 31.008C90.5107 31.0111 90.3536 31.091 90.1574 31.2474C89.9617 31.4007 89.743 31.6082 89.5023 31.8509C89.255 32.0872 89.0049 32.365 88.741 32.6747C88.4814 32.9845 88.2306 33.2878 87.9863 33.5815C87.7391 33.8817 87.518 34.1627 87.3188 34.4245C87.1196 34.6831 86.9589 34.8875 86.8403 35.0376L86.7052 35.1972C86.5765 35.3601 86.3809 35.6123 86.1176 35.9636C85.8574 36.3148 85.5651 36.7171 85.2343 37.1673C84.91 37.6176 84.5792 38.0997 84.2258 38.6074C83.876 39.1151 83.5322 39.6036 83.2079 40.0762C82.8836 40.5455 82.5884 40.9767 82.3216 41.3662C82.0584 41.7526 81.8497 42.0591 81.7145 42.2986C81.7756 42.3369 81.8592 42.3688 81.9558 42.3943C82.0613 42.4231 82.1514 42.4423 82.2415 42.4614C82.5848 42.5316 82.9702 42.5668 83.3911 42.554C83.818 42.5444 84.2359 42.5444 84.6563 42.5699L89.0369 42.6785C89.178 42.6051 89.3837 42.5348 89.6724 42.4869C89.9582 42.4359 90.2315 42.3911 90.4947 42.3688L90.9702 42.3177C91.2014 42.2954 91.3875 42.2634 91.5381 42.2187C91.6828 42.1708 91.8144 42.1357 91.9205 42.0942C92.0361 42.0559 92.1387 42.0272 92.2353 42.0111C92.3379 42.0048 92.46 42.008 92.6011 42.0367C92.8359 42.0846 93.0416 42.1772 93.2082 42.3145C93.3819 42.455 93.5295 42.6242 93.6481 42.8222C93.7738 43.0297 93.8859 43.2565 93.9855 43.5215C94.088 43.7769 94.1941 44.0515 94.3032 44.3453C94.3032 44.5816 94.2777 44.8019 94.2232 45.0222C94.1716 45.233 94.0945 45.4118 93.9949 45.5586C93.8989 45.7151 93.7768 45.83 93.6416 45.9131C93.5041 45.9897 93.3558 46.0153 93.1892 45.9833C93.0861 45.9609 92.9646 45.9003 92.8163 45.8013C92.6337 45.8045 92.3669 45.8141 92.0071 45.8333C91.6537 45.8524 91.1753 45.8652 90.5747 45.8875C89.9682 45.9131 89.2325 45.929 88.3462 45.945C87.4664 45.9673 86.4064 45.9737 85.1768 45.9833C85.0576 45.9865 84.8424 45.9833 84.5217 45.9609C84.2033 45.945 83.8666 45.9258 83.5031 45.9003C83.1504 45.878 82.8095 45.8492 82.4852 45.8173C82.158 45.779 81.9392 45.7566 81.8141 45.731C81.4738 45.6608 81.0979 45.5363 80.69 45.3543C80.2922 45.1819 79.9098 44.952 79.5405 44.6742C79.1682 44.3963 78.8498 44.0643 78.5771 43.6907C78.3044 43.3139 78.1241 42.8988 78.0406 42.4486C78.0151 42.3049 77.9991 42.1421 77.9961 41.9441Z" fill="#EF7F1A"/>
</svg>
